<?xml version="1.0" encoding="UTF-8" standalone="no"?>
<!-- Created with Inkscape (http://www.inkscape.org/) -->

<svg
   xmlns:dc="http://purl.org/dc/elements/1.1/"
   xmlns:cc="http://creativecommons.org/ns#"
   xmlns:rdf="http://www.w3.org/1999/02/22-rdf-syntax-ns#"
   xmlns:svg="http://www.w3.org/2000/svg"
   xmlns="http://www.w3.org/2000/svg"
   xmlns:sodipodi="http://sodipodi.sourceforge.net/DTD/sodipodi-0.dtd"
   xmlns:inkscape="http://www.inkscape.org/namespaces/inkscape"
   version="1.0"
   width="986"
   height="1424"
   id="svg2"
   sodipodi:version="0.32"
   inkscape:version="0.48.4 r9939"
   sodipodi:docname="CO_Re_MAP.svg"
   inkscape:output_extension="org.inkscape.output.svg.inkscape">
  <metadata
     id="metadata76">
    <rdf:RDF>
      <cc:Work
         rdf:about="">
        <dc:format>image/svg+xml</dc:format>
        <dc:type
           rdf:resource="http://purl.org/dc/dcmitype/StillImage" />
        <dc:title></dc:title>
      </cc:Work>
    </rdf:RDF>
  </metadata>
  <sodipodi:namedview
     inkscape:window-height="776"
     inkscape:window-width="1271"
     inkscape:pageshadow="2"
     inkscape:pageopacity="0.0"
     guidetolerance="10.0"
     gridtolerance="10.0"
     objecttolerance="10.0"
     borderopacity="1.0"
     bordercolor="#666666"
     pagecolor="#ffffff"
     id="base"
     showgrid="false"
     inkscape:zoom="0.4588249"
     inkscape:cx="283.0769"
     inkscape:cy="682.55834"
     inkscape:window-x="-8"
     inkscape:window-y="0"
     inkscape:current-layer="g2161"
     showguides="false"
     inkscape:guide-bbox="true"
     inkscape:window-maximized="1"
     inkscape:object-paths="true"
     inkscape:snap-bbox="true"
     inkscape:snap-smooth-nodes="true"
     inkscape:snap-midpoints="false" />
  <defs
     id="defs5">
    <inkscape:perspective
       sodipodi:type="inkscape:persp3d"
       inkscape:vp_x="0 : 712 : 1"
       inkscape:vp_y="0 : 1000 : 0"
       inkscape:vp_z="986 : 712 : 1"
       inkscape:persp3d-origin="493 : 474.66667 : 1"
       id="perspective78" />
  </defs>
  <g
     transform="translate(3.7771873,3.7771883)"
     id="g2161">
    <path
       style="fill:#d40000;fill-opacity:1;stroke:none"
       d="m 423.92535,654.26785 c 1.43266,0.37465 3.73098,-0.21164 6.14224,-1.56684 3.25011,-1.82666 3.98052,-1.93935 4.66803,-0.72017 0.70389,1.24824 1.26721,1.25479 4.1308,0.048 l 3.31576,-1.39727 -0.29228,-6.50839 c -0.38753,-8.62919 0.84931,-10.03189 7.17082,-8.13242 2.46947,0.74203 7.26099,1.66985 10.64782,2.06184 4.62958,0.53583 6.72039,1.31146 8.42432,3.12522 2.73848,2.91497 6.9178,3.27 6.9178,0.58765 0,-1.00366 1.125,-5.13248 2.5,-9.17515 1.59054,-4.67639 2.5,-9.57023 2.5,-13.45265 0,-3.57605 0.57248,-6.91966 1.38284,-8.07662 0.76057,-1.08586 2.60736,-4.89848 4.10398,-8.47251 1.49663,-3.57402 5.58954,-10.36178 9.09537,-15.08391 l 6.37423,-8.58569 -4.00971,-9.41431 c -2.20535,-5.17787 -5.18934,-11.72519 -6.63109,-14.5496 -2.23127,-4.37108 -2.52822,-5.93366 -1.99542,-10.5 0.77685,-6.65797 3.81109,-9.96085 6.72671,-7.32226 1.48063,1.33995 2.09261,1.38737 3.83799,0.29736 3.84138,-2.39899 3.17584,-3.55684 -2.71241,-4.71881 -3.11987,-0.61567 -7.24749,-1.23226 -9.17249,-1.3702 l -3.5,-0.2508 0.34007,-4.75 c 0.27227,-3.80302 0.0256,-4.75 -1.23746,-4.75 -0.86764,0 -2.71381,-1.8 -4.10261,-4 -3.56687,-5.65029 -6.89537,-5.56186 -9.40974,0.25 -1.15586,2.67174 -3.83499,5.85044 -7.21446,8.55972 -6.81115,5.46042 -14.50722,15.22802 -16.04651,20.36571 -0.65262,2.17825 -2.23119,4.78214 -3.50793,5.78643 -2.64781,2.08276 -3.06599,6.17526 -0.82136,8.03814 0.825,0.68469 1.5,2.36253 1.5,3.72852 0,1.45815 1.03225,3.29561 2.5,4.45014 4.16752,3.27817 3.22512,5.30963 -4.57701,9.86632 -9.03446,5.2764 -17.79162,9.15424 -18.99422,8.411 -0.51486,-0.3182 -0.66068,-1.67597 -0.32403,-3.01727 0.5814,-2.31647 0.38472,-2.43871 -3.92375,-2.43871 -3.60311,0 -4.926,-0.49602 -6.43324,-2.41217 -1.89467,-2.40868 -1.90173,-2.40944 -4.87413,-0.52745 l -2.97672,1.88472 -4.86122,-4.01708 c -2.92217,-2.41474 -5.46714,-3.78456 -6.38027,-3.43416 -0.93367,0.35828 -2.36182,-0.474 -3.70595,-2.1597 l -2.18688,-2.74261 -1.66565,3.22102 c -1.48193,2.86572 -1.90292,3.09404 -3.81663,2.06985 -1.87086,-1.00125 -2.51754,-0.74092 -4.96564,1.99898 -2.67684,2.9959 -3.86693,8.1186 -1.88609,8.1186 0.51072,0 1.57808,0.6495 2.37191,1.44334 1.25779,1.25778 1.8009,0.77569 4.22463,-3.75 1.52971,-2.85634 2.93276,-5.37625 3.11789,-5.59981 0.27473,-0.33175 7.87028,2.60314 9.2416,3.57092 0.21153,0.14928 -0.21366,1.74835 -0.94488,3.55349 -1.32388,3.2683 -4.48055,6.78211 -6.09273,6.78211 -0.46584,0 -0.84699,0.9 -0.84699,2 0,1.6446 0.66637,1.99984 3.75,1.99911 3.06088,-7.2e-4 4.46292,-0.73579 7.62948,-4 4.68376,-4.82819 6.62052,-5.12047 6.62052,-0.99911 0,1.65 0.45,3 1,3 1.50781,0 1.20117,1.94169 -0.58942,3.73228 -1.18263,1.18262 -1.43005,2.65219 -0.96674,5.74179 0.56025,3.73599 0.36664,4.2894 -1.93078,5.51894 -1.96174,1.04989 -2.82687,1.09318 -3.73327,0.18678 -1.94684,-1.94684 -2.80814,-1.33612 -1.66231,1.17871 0.90773,1.99226 0.69272,2.72987 -1.38458,4.75 -1.35255,1.31533 -4.19456,3.2915 -6.31558,4.3915 -4.23729,2.19755 -7.84329,7.42332 -5.66732,8.21302 0.6875,0.2495 1.25,0.98324 1.25,1.63053 0,1.39863 -4.33954,6.25192 -6.19673,6.93036 -1.04381,0.38131 -1.05442,0.73987 -0.0533,1.80109 0.6875,0.72875 1.25,2.51526 1.25,3.97001 0,3.56449 3.18191,6.2113 8.28598,6.89254 3.68773,0.49221 4.25354,0.9059 4.53044,3.31245 0.22051,1.91638 0.8883,2.75 2.20295,2.75 1.03759,0 3.00804,0.511 4.37878,1.13555 1.83419,0.83571 3.62891,0.84544 6.79705,0.0368 4.03042,-1.02867 4.52788,-0.91874 7.80477,1.72468 l 3.49997,2.82339 3.04275,-2.32082 c 2.05134,-1.56463 3.78864,-2.12575 5.332,-1.72216 z"
       id="Vac"
       inkscape:label="Valle del Cuaca" />
    <path
       style="fill:#d40000;fill-opacity:1;stroke:none"
       d="m 465.60953,810.12217 c 1.06762,-0.8075 2.96775,-1.4825 4.22251,-1.5 3.03751,-0.042 4.10443,-2.9383 1.62311,-4.4056 -1.04747,-0.6194 -2.80449,-1.3696 -3.90449,-1.6672 -1.1,-0.2975 -2.14539,-1.5472 -2.3231,-2.777 -0.20867,-1.4442 -0.91696,-2.138 -2,-1.9591 -1.20553,0.1992 -1.76624,-0.5662 -1.99471,-2.7229 -0.1748,-1.65 -1.20497,-3.6903 -2.28926,-4.5339 -1.88524,-1.4669 -1.89992,-1.7051 -0.33563,-5.449 0.89971,-2.15329 3.16737,-6.30927 5.03926,-9.23551 4.00237,-6.25671 4.11416,-6.73233 1.2181,-5.1824 -1.92008,1.0276 -2.54091,0.77161 -5.11469,-2.10895 -2.44782,-2.73959 -3.8535,-3.3781 -8.55143,-3.88438 l -5.62207,-0.60586 0.3197,-7.62285 c 0.31005,-7.3929 0.23423,-7.68273 -2.51324,-9.60742 -1.55811,-1.09151 -3.48028,-2.18951 -4.27149,-2.44 -1.89159,-0.59886 -3.97604,-10.04751 -3.31077,-15.00747 0.44305,-3.3032 1.05933,-4.13386 3.96895,-5.34958 3.01233,-1.25863 3.80432,-1.2531 6.31276,0.0441 1.57757,0.81579 3.79065,1.48325 4.91796,1.48325 1.78154,0 2.04966,-0.6279 2.04966,-4.8 0,-2.64 -0.51587,-5.31587 -1.14638,-5.94638 -0.86183,-0.86183 -0.29798,-1.55094 2.27169,-2.77633 1.92998,-0.92035 4.40315,-3.3416 5.68078,-5.56152 l 2.26271,-3.93155 3.0733,1.58927 c 4.42117,2.28627 7.37946,1.09709 11.48421,-4.61641 l 3.58885,-4.99542 3.8953,3.51917 c 4.46255,4.03164 5.42304,4.25935 6.83534,1.62045 1.01857,-1.90322 -0.33309,-6.97624 -4.34809,-16.31916 -0.87874,-2.04487 -1.59771,-6.06702 -1.59771,-8.93815 0,-5.61943 -2.88817,-11.32601 -6.28849,-12.42511 -0.98367,-0.31795 -2.89234,-2.24612 -4.24148,-4.28481 -2.11023,-3.18878 -2.31445,-4.18977 -1.46151,-7.1638 0.54532,-1.90139 0.99148,-3.57255 0.99148,-3.71368 0,-0.14113 -0.76288,-0.2566 -1.69528,-0.2566 -0.93241,0 -2.94381,-1.19617 -4.4698,-2.65816 -2.63605,-2.5255 -6.48973,-3.53114 -21.33492,-5.56749 -1.82087,-0.24978 -2.01055,0.33329 -2.11774,6.51006 -0.0648,3.73143 -0.42295,7.08961 -0.79598,7.46264 -1.63184,1.63185 -10.0721,4.16713 -10.95006,3.28917 -0.57831,-0.57831 -1.96073,-0.40265 -3.63176,0.46147 -1.48391,0.76736 -3.64794,1.1468 -4.80895,0.84318 -1.36902,-0.358 -3.24908,0.33872 -5.34924,1.98234 l -3.2383,2.53435 -3.83995,-3.04129 c -3.53679,-2.80119 -4.15262,-2.96192 -7.80063,-2.03596 -5.33362,1.35381 -15.31245,-1.52343 -15.77199,-4.54761 -0.19651,-1.29318 -1.32077,-2.20777 -3.16807,-2.57723 -4.41677,-0.88336 -10.02733,-6.31079 -10.02733,-9.70005 0,-3.70346 -1.35409,-4.42474 -4.47175,-2.38197 -3.04897,1.99776 -3.19461,3.08028 -0.52825,3.92655 3.20203,1.01628 2.318,3.08815 -1.85056,4.33708 -2.46903,0.73974 -5.69812,3.10718 -9,6.59843 -5.30818,5.61261 -6.24985,7.56449 -3.64944,7.56449 0.99209,0 1.5,0.99227 1.5,2.93045 0,2.27324 -0.50231,3.00211 -2.23978,3.25 -1.24753,0.17798 -2.40041,1.16158 -2.60235,2.22022 -0.1994,1.04538 -1.6665,2.99788 -3.26021,4.3389 -1.59371,1.34102 -2.89766,3.02507 -2.89766,3.74233 0,0.71727 -0.675,1.56314 -1.5,1.87973 -0.825,0.31658 -1.5,1.54221 -1.5,2.72362 0,1.56753 -0.47293,2.01432 -1.75,1.65329 -0.9625,-0.2721 -2.41005,-0.66209 -3.21677,-0.86663 -0.86978,-0.22054 -2.15494,0.97903 -3.15756,2.94726 l -1.69079,3.31917 4.65756,6.22546 c 2.56166,3.42399 6.90498,9.38754 9.65183,13.25232 2.74686,3.86478 7.11395,8.69898 9.70466,10.74266 l 4.71038,3.71579 5.98771,-3.02259 5.98772,-3.02259 2.0944,2.94132 c 1.15193,1.61772 2.97857,4.94012 4.05922,7.3831 1.78013,4.02428 5.92148,8.50037 10.31264,11.14619 1.46412,0.88219 1.19849,1.57964 -2.25467,5.91996 -2.15287,2.70598 -4.14875,6.08098 -4.43529,7.5 -0.28654,1.41902 -0.82564,3.36754 -1.198,4.33004 -0.61456,1.58855 0.16777,1.75 8.47963,1.75 6.14467,0 10.10181,-0.48876 12.02999,-1.48586 2.77655,-1.43581 2.96504,-1.37686 5.59535,1.75 1.49711,1.77972 4.11604,3.82259 5.81986,4.5397 1.70382,0.71711 4.12125,2.26527 5.37206,3.44035 l 2.27422,2.13652 -3.58591,3.67229 -3.5859,3.6723 2.0102,3.30551 c 1.33721,2.19887 1.82059,4.25356 1.44383,6.13735 -0.52453,2.62266 -0.33703,2.83184 2.53831,2.83184 2.64999,0 3.41827,-0.62241 5.24601,-4.25 3.52854,-7.00323 3.61394,-7.04242 8.30863,-3.81239 4.95436,3.40869 6.5464,7.46786 5.83455,14.87619 -0.54764,5.6994 0.26504,10.1862 1.84501,10.1862 0.57792,0 3.02197,1.3562 5.43122,3.0138 2.40925,1.6576 5.41533,3.4291 6.68018,3.9366 3.53898,1.4201 9.20366,1.2113 11.35859,-0.4186 z"
       id="Cau"
       inkscape:label="Cauca" />
    <path
       style="fill:#d40000;fill-opacity:1;stroke:none"
       d="m 398.05066,853.71747 c 0,-5.3129 -3.58844,-13.0155 -7.75104,-16.6378 l -3.45981,-3.0106 4.51182,-5.9894 c 2.48151,-3.2941 5.67895,-7.0802 7.10543,-8.4136 2.98752,-2.7925 3.37813,-7.1708 1.21117,-13.5757 -3.1052,-9.178 -3.13159,-9.0471 2.71412,-13.4607 3.44865,-2.6037 6.40172,-4.0393 8.30918,-4.0393 1.62752,0 3.49913,-0.54 4.15913,-1.2 1.80092,-1.80092 1.44724,-6.34511 -0.77874,-10.00544 l -1.97874,-3.25378 3.6035,-3.69032 3.60351,-3.69032 -5.02611,-2.54693 c -2.76437,-1.4008 -5.94304,-3.7126 -7.06372,-5.13731 -1.96392,-2.49672 -2.14651,-2.53408 -5.04899,-1.03315 -2.09828,1.08506 -5.85649,1.55725 -12.39438,1.55725 -5.16065,0 -9.60266,-0.21967 -9.87114,-0.48815 -1.14284,-1.14283 1.94088,-11.87375 4.2561,-14.81067 4.2042,-5.33312 4.20195,-5.38048 -0.46089,-9.67853 -2.43021,-2.24009 -4.99705,-5.52409 -5.70408,-7.29777 -0.70703,-1.77369 -2.13288,-4.45577 -3.16855,-5.96018 l -1.88303,-2.73531 -5.78768,2.92161 -5.78767,2.92161 -5.59478,-4.6863 c -3.14419,-2.63364 -9.18651,-9.72348 -13.79479,-16.18631 -4.51,-6.325 -8.66033,-11.79691 -9.22297,-12.15979 -0.56263,-0.36289 -1.55148,-1.93789 -2.19743,-3.5 l -1.17447,-2.84021 -2.14818,4.18215 c -3.25803,6.34283 -4.55411,6.44014 -7.56292,0.56785 -0.91586,-1.7875 -2.29578,-3.25 -3.06647,-3.25 -0.7707,0 -3.12164,2.20961 -5.22432,4.91024 -4.45628,5.72353 -9.45835,7.57144 -11.91749,4.40266 -1.34792,-1.7369 -1.48287,-1.72363 -3.21887,0.31649 -0.99658,1.17117 -3.28777,2.45353 -5.09153,2.84971 -2.68575,0.58989 -3.69398,1.61477 -5.56829,5.66029 -1.2588,2.71698 -2.96723,5.70961 -3.79651,6.65029 -0.82928,0.94068 -1.809,3.129 -2.17714,4.86294 -0.53902,2.5387 -0.25539,3.44258 1.45644,4.6416 1.94518,1.36246 2.02903,1.84832 0.98693,5.71841 -1.06366,3.95012 -0.96907,4.40666 1.43226,6.91312 1.41413,1.47603 2.57114,3.67156 2.57114,4.87897 0,1.541 0.60634,2.19528 2.03444,2.19528 1.87265,0 1.98117,0.41752 1.36453,5.25 -0.36845,2.8875 -0.7899,5.39345 -0.93655,5.56878 -0.14665,0.17532 -2.86834,-0.16218 -6.04819,-0.75 -3.17985,-0.58783 -8.60451,-1.06878 -12.05479,-1.06878 l -6.27324,0 -5.67988,7.02988 c -3.12394,3.86644 -5.50583,7.14552 -5.2931,7.28684 0.21273,0.14133 2.39664,1.59038 4.85313,3.22012 4.98924,3.31006 8.03365,6.06145 8.03365,7.2604 0,1.92945 16.89033,16.01816 22.88744,19.09096 3.63691,1.8636 7.21782,4.2507 7.95758,5.3047 3.53437,5.036 5.91274,6.9035 9.65592,7.582 5.38605,0.9761 19.73945,9.9362 22.38685,13.9748 2.52557,3.8528 4.88287,4.0806 18.11221,1.7503 4.675,-0.8235 8.7471,-1.4979 9.04911,-1.4986 0.30201,-8e-4 1.11328,1.5588 1.80282,3.4657 0.90821,2.5116 0.96055,4.0148 0.18993,5.4547 -0.94755,1.7705 -0.42014,2.3442 4.82754,5.2512 l 5.89132,3.2636 0.60568,6.0317 c 0.54282,5.4057 0.99634,6.3649 4.36964,9.2416 3.93431,3.3552 3.07301,3.1833 20.51396,4.0942 3.72153,0.1944 3.75,0.1665 3.75,-3.677 z"
       id="Nar"
       inkscape:label="Nariño" />
    <path
       style="fill:#d40000;fill-opacity:1;stroke:none"
       d="m 622.26411,919.87997 c 12.19677,-3.5237 19.40936,-6.0668 18.83503,-6.6411 -0.51192,-0.5119 -3.19135,-1.148 -5.95429,-1.4135 -3.84498,-0.3694 -5.9489,-1.2747 -8.96783,-3.8588 -2.30605,-1.9739 -5.0335,-3.3762 -6.56671,-3.3762 -1.44412,0 -2.88919,-0.6952 -3.21614,-1.5472 -0.3978,-1.0367 -1.61413,-1.4492 -3.68587,-1.25 -2.87483,0.2763 -3.13668,0.03 -3.72574,-3.5036 -0.83899,-5.033 -1.82857,-5.876 -5.62105,-4.7884 -1.70967,0.4904 -3.49153,0.5206 -3.95967,0.067 -0.46815,-0.4534 -3.89008,-0.1363 -7.6043,0.7046 -7.31837,1.657 -9.74688,1.3275 -9.74688,-1.3225 0,-0.9364 -0.77134,-2.5549 -1.71408,-3.5967 -1.37033,-1.5142 -1.6555,-3.44 -1.42197,-9.6031 0.25483,-6.7252 0.0298,-7.9465 -1.76348,-9.5694 -1.55456,-1.4068 -3.02648,-1.73 -6.03891,-1.326 -2.73503,0.3669 -4.34734,0.096 -5.14489,-0.8653 -0.63886,-0.7698 -2.59545,-1.3996 -4.34799,-1.3996 -5.76641,0 -7.11109,-1.9111 -6.71835,-9.5481 0.39411,-7.6636 -0.1715,-8.413 -6.3682,-8.4366 -2.6339,-0.01 -5.30341,-0.8889 -7.75,-2.5514 -3.05894,-2.0786 -3.73213,-3.1387 -3.73213,-5.8775 0,-1.8378 -0.64829,-3.8795 -1.44064,-4.5371 -0.79235,-0.6576 -1.57985,-2.4002 -1.75,-3.8725 -0.29516,-2.554 -0.58471,-2.6826 -6.30936,-2.8042 -6.9507,-0.1477 -11.5,-1.6698 -11.5,-3.8478 0,-1.0208 -0.97222,-1.5248 -2.94098,-1.5248 -1.61754,0 -3.2191,-0.45 -3.55902,-1 -0.33992,-0.55 -2.72898,-1.0143 -5.30902,-1.0318 -2.58004,-0.017 -5.56449,-0.6925 -6.63211,-1.5 -1.06762,-0.8075 -2.9639,-1.4682 -4.21395,-1.4682 -2.62945,0 -7.34492,-6.1861 -7.34492,-9.6356 0,-1.8996 -0.6388,-2.2147 -5.1038,-2.5179 -4.71382,-0.32 -5.21243,-0.1364 -6.52568,2.4035 -1.01394,1.961 -2.20349,2.7591 -4.1462,2.7818 -1.49838,0.018 -3.52084,0.6362 -4.49437,1.3749 -3.4323,2.6044 -13.4039,0.2923 -19.61481,-4.5481 -1.31167,-1.0222 -3.21813,-1.8586 -4.23658,-1.8586 -3.00709,0 -4.71126,-5.6061 -4.13832,-13.6135 0.46211,-6.45862 0.30561,-7.17856 -2.21036,-10.16862 -1.48922,-1.76963 -3.33508,-3.21768 -4.10193,-3.21768 -0.76684,0 -2.50182,2.18566 -3.8555,4.85703 l -2.46124,4.85707 -7.80561,0.6868 c -6.47521,0.5698 -8.61486,1.2333 -12.55367,3.893 -2.61143,1.7633 -4.73424,3.8811 -4.71735,4.7061 0.0169,0.825 0.90133,3.975 1.96542,7 3.14422,8.9384 2.77784,10.6622 -3.82869,18.0139 -8.14819,9.0672 -8.52675,9.9187 -5.47665,12.3179 3.35099,2.6359 8.16843,13.142 8.52006,18.581 0.27099,4.1918 0.49633,4.4895 4.49825,5.9432 3.25132,1.181 4.35369,2.171 4.82945,4.3372 0.73759,3.3581 0.84943,3.376 4.5654,0.73 2.13454,-1.5199 3.7177,-1.9008 5.90437,-1.4205 2.33295,0.5124 2.98781,0.31 2.98781,-0.9232 0,-2.245 1.76885,-1.9465 7.63611,1.289 4.81169,2.6533 5.4907,2.7679 10.75,1.8146 l 5.61389,-1.0175 0,-4.8328 c 0,-3.8656 0.33733,-4.8328 1.68555,-4.8328 0.92705,0 2.67437,-0.929 3.88294,-2.0643 l 2.19739,-2.0644 7.36706,2.2274 c 4.05188,1.2251 7.95508,3.054 8.67376,4.0643 0.71869,1.0104 2.29369,1.8772 3.5,1.9263 1.42862,0.058 4.30923,2.5858 8.26229,7.25 8.43801,9.9559 11.22207,11.6607 19.04277,11.6607 6.0283,0 6.48846,0.1777 10.10212,3.9011 2.73102,2.814 6.12204,4.7697 12.16832,7.0179 l 8.3822,3.1167 3.30108,-2.5178 c 5.1617,-3.9371 8.03512,-3.3327 18.66547,3.9259 l 9.43706,6.4437 2.13131,-2.1313 c 1.88319,-1.8832 2.4161,-1.9789 4.57753,-0.8221 1.63283,0.8739 2.6596,2.5156 3.08799,4.9375 1.15697,6.5409 1.44943,6.9084 6.45499,8.1092 3.03129,0.7272 5.91548,2.2833 7.71132,4.1605 1.57787,1.6493 4.44385,3.9592 6.36885,5.133 1.925,1.1739 4.08802,2.9423 4.8067,3.93 0.71869,0.9876 1.60692,1.7957 1.97384,1.7957 0.36693,0 9.56174,-2.5697 20.43291,-5.7104 z"
       id="Put"
       inkscape:label="Putumayo" />
  </g>
</svg>
