<?xml version="1.0" encoding="UTF-8" standalone="no"?>
<!-- Created with Inkscape (http://www.inkscape.org/) -->

<svg
   xmlns:dc="http://purl.org/dc/elements/1.1/"
   xmlns:cc="http://creativecommons.org/ns#"
   xmlns:rdf="http://www.w3.org/1999/02/22-rdf-syntax-ns#"
   xmlns:svg="http://www.w3.org/2000/svg"
   xmlns="http://www.w3.org/2000/svg"
   xmlns:sodipodi="http://sodipodi.sourceforge.net/DTD/sodipodi-0.dtd"
   xmlns:inkscape="http://www.inkscape.org/namespaces/inkscape"
   version="1.0"
   width="986"
   height="1424"
   id="svg2"
   sodipodi:version="0.32"
   inkscape:version="0.48.4 r9939"
   sodipodi:docname="CO_Re_Cos.svg"
   inkscape:output_extension="org.inkscape.output.svg.inkscape">
  <metadata
     id="metadata76">
    <rdf:RDF>
      <cc:Work
         rdf:about="">
        <dc:format>image/svg+xml</dc:format>
        <dc:type
           rdf:resource="http://purl.org/dc/dcmitype/StillImage" />
        <dc:title></dc:title>
      </cc:Work>
    </rdf:RDF>
  </metadata>
  <sodipodi:namedview
     inkscape:window-height="776"
     inkscape:window-width="1271"
     inkscape:pageshadow="2"
     inkscape:pageopacity="0.0"
     guidetolerance="10.0"
     gridtolerance="10.0"
     objecttolerance="10.0"
     borderopacity="1.0"
     bordercolor="#666666"
     pagecolor="#ffffff"
     id="base"
     showgrid="false"
     inkscape:zoom="0.3244382"
     inkscape:cx="88.742829"
     inkscape:cy="696.71663"
     inkscape:window-x="-8"
     inkscape:window-y="0"
     inkscape:current-layer="g2161"
     showguides="false"
     inkscape:guide-bbox="true"
     inkscape:window-maximized="0"
     inkscape:object-paths="true"
     inkscape:snap-bbox="true"
     inkscape:snap-smooth-nodes="true"
     inkscape:snap-midpoints="false" />
  <defs
     id="defs5">
    <inkscape:perspective
       sodipodi:type="inkscape:persp3d"
       inkscape:vp_x="0 : 712 : 1"
       inkscape:vp_y="0 : 1000 : 0"
       inkscape:vp_z="986 : 712 : 1"
       inkscape:persp3d-origin="493 : 474.66667 : 1"
       id="perspective78" />
  </defs>
  <g
     transform="translate(3.7771873,3.7771883)"
     id="g2161">
    <path
       style="fill:#ff6666;fill-opacity:1"
       d="m 657.47498,668.49205 c 1.85412,0.53176 6.62622,0.96683 10.60468,0.96683 8.48338,0 8.14083,0.33449 13.82526,-13.5 7.40562,-18.02342 12.97457,-27.86755 19.14009,-33.83355 5.13882,-4.97253 6.29421,-5.62849 9.94518,-5.6463 l 4.13087,-0.0202 9.84319,-18.84915 9.84319,-18.84915 22.52593,-7.40085 c 12.38927,-4.07047 22.85655,-7.85085 23.26063,-8.40085 0.40408,-0.55 0.74158,-2.2375 0.75,-3.75 0.0132,-2.37365 0.41812,-2.75 2.95861,-2.75 1.67989,0 3.50419,-0.7708 4.25,-1.79571 0.71868,-0.98764 2.9942,-2.82434 5.0567,-4.08156 2.0625,-1.25722 3.74884,-3.03665 3.74743,-3.95429 -10e-4,-0.91764 -1.57641,-4.27848 -3.5,-7.46852 -1.92359,-3.18999 -3.49743,-6.64535 -3.49743,-7.67852 0,-2.90917 -2.38883,-4.6549 -9.69803,-7.08725 -3.70057,-1.23147 -7.41988,-3.07344 -8.26514,-4.09326 -1.0569,-1.27517 -3.48863,-2.05276 -7.78683,-2.48999 -6.21318,-0.63202 -6.25,-0.62059 -6.25,1.93931 0,2.61867 -2.91646,4.49754 -4.99105,3.21537 -0.55492,-0.34296 -1.00895,-0.10664 -1.00895,0.52516 0,1.41753 -4.04588,4.89068 -5.75,4.93604 -0.6875,0.0183 -1.25,-0.64554 -1.25,-1.4752 0,-1.22017 -0.35541,-1.28652 -1.85953,-0.34718 -1.73513,1.08361 -1.75815,1.41936 -0.34408,5.01922 0.83349,2.12187 1.33278,3.96712 1.10952,4.10056 -0.22325,0.13345 -1.90406,1.29344 -3.73513,2.57776 -2.93001,2.05512 -3.67945,2.19005 -6.25,1.1253 -3.11372,-1.28975 -3.66659,-2.82138 -1.72078,-4.76719 1.40504,-1.40504 -0.89816,-1.61037 -6.19062,-0.55188 -3.20257,0.64052 -3.23335,0.7012 -2.62116,5.16763 0.93042,6.78815 -4.49377,17.02972 -12.39934,23.41155 -5.18771,4.18781 -7.71547,5.3018 -22.14982,9.76154 -14.87398,4.59557 -16.6879,5.41197 -20.81643,9.36887 -2.48745,2.38404 -7.22263,6.36874 -10.52263,8.8549 -3.3,2.48615 -7.95082,6.6369 -10.33516,9.22388 -3.81545,4.13972 -5.13416,4.87393 -11,6.12438 -3.66566,0.78143 -9.65035,1.7097 -13.29931,2.06282 l -6.63447,0.64203 -2.11553,7.28083 c -2.63679,9.07479 -2.67122,14.02979 -0.12649,18.20345 2.25078,3.69154 4.04705,3.97599 11.26914,1.78455 4.43743,-1.34648 5.21264,-1.29143 11.5,0.81669 5.95902,1.99804 6.70334,2.52796 6.41044,4.56395 -0.20178,1.40263 0.0749,2.05236 0.70742,1.66142 0.57133,-0.3531 1.76284,0.75816 2.64779,2.46947 0.88495,1.71131 3.06964,3.72177 4.85485,4.46768 6.40384,2.67569 6.66361,11.86165 0.42663,15.08692 -1.54292,0.79787 -2.80531,1.81412 -2.80531,2.25833 0,1.57164 1.28493,2.05887 3.00376,1.13898 1.08272,-0.57946 3.01516,-0.56616 5.11191,0.0352 z"
       id="Lag"
       inkscape:label="La Guajira"
       inkscape:connector-curvature="0" />
    <path
       style="fill:#ff6666;fill-opacity:1"
       d="m 633.74507,868.45215 c 2.51665,-3.80292 2.56922,-4.13235 1.0335,-6.47616 -1.55753,-2.37709 -1.52084,-2.5137 0.98135,-3.65378 3.32158,-1.51341 3.28994,-3.53311 -0.11096,-7.08289 -1.4907,-1.55595 -3.71802,-5.6119 -4.94961,-9.01323 l -2.23926,-6.18422 3.51327,-4.28748 c 2.71245,-3.31018 3.44177,-5.02734 3.19961,-7.5333 -0.20668,-2.13875 -0.91055,-3.3589 -2.06366,-3.57734 -0.9625,-0.18234 -1.75,0.12218 -1.75,0.67671 0,0.55452 -0.44575,2.18062 -0.99055,3.61356 -0.88468,2.32688 -1.23204,2.47816 -3.25,1.4154 -3.22149,-1.69661 -3.68781,-2.79759 -2.55785,-6.039 0.87393,-2.50696 0.61383,-3.29772 -2.10214,-6.39104 -1.7047,-1.94155 -3.09946,-3.74843 -3.09946,-4.01528 0,-0.26685 2.025,-4.5172 4.5,-9.44522 l 4.5,-8.96004 0,-13.071 0,-13.07101 3.27755,-1.36945 c 2.8635,-1.19645 3.57562,-2.2954 5.63694,-8.69898 1.77392,-5.51078 3.64939,-8.81835 7.55811,-13.32952 7.54547,-8.70843 11.5274,-14.97199 11.5274,-18.13257 0,-1.71886 1.12731,-3.9353 2.96685,-5.83323 l 2.96685,-3.06101 -1.51113,-5.78678 -1.51114,-5.78677 3.04428,-3.84372 c 2.81251,-3.55109 3.04429,-4.44664 3.04429,-11.76273 0,-7.49352 0.16119,-8.07344 3,-10.79319 1.65,-1.5808 3,-3.14906 3,-3.48501 0,-1.17661 -18.23365,-2.96031 -20.0924,-1.96554 -1.24022,0.66375 -2.01195,0.57304 -2.52466,-0.29675 -0.40615,-0.68898 -1.36775,-2.23856 -2.13691,-3.44349 -1.3163,-2.06208 -1.16324,-2.3108 2.60504,-4.23323 6.45176,-3.29144 6.76279,-9.08589 0.62535,-11.65028 -1.83197,-0.76545 -3.61894,-2.29937 -3.97103,-3.40871 -0.76648,-2.41496 -1.38601,-2.48934 -4.21724,-0.50627 -2.90901,2.03755 -3.6976,0.40499 -1.8919,-3.91666 l 1.45988,-3.49397 -5.67807,-1.65225 c -5.23169,-1.52236 -6.07804,-1.52629 -10.76595,-0.05 -2.79834,0.88121 -6.28584,1.6022 -7.75,1.6022 -1.46416,0 -2.66211,0.45 -2.66211,1 0,0.55 1.125,1 2.5,1 2.02456,0 2.5,0.49362 2.5,2.59563 0,1.4276 -0.93962,3.91521 -2.08805,5.52803 -1.74589,2.45187 -1.91615,3.42554 -1.03898,5.94179 0.63545,1.82285 0.70612,3.91142 0.17925,5.2972 -0.93046,2.44729 -5.09336,5.63735 -7.35652,5.63735 -0.75607,0 -1.8614,1.06826 -2.4563,2.37391 -1.07319,2.35541 -6.43575,4.30327 -10.55422,3.83364 -2.37266,-0.27055 -6.27438,4.42096 -10.98314,13.20637 -3.44967,6.43626 -3.7022,7.41654 -2.75373,10.68966 0.66918,2.3093 3.71761,6.32068 8.48749,11.16856 5.1257,5.20952 7.77046,8.75794 8.49414,11.39642 0.578,2.10729 1.92753,5.15024 2.99898,6.7621 3.38806,5.09694 1.72715,6.17172 -9.09719,5.88685 l -9.33173,-0.24559 -3.19847,3.8354 -3.19847,3.83541 4.03805,1.8209 c 5.21614,2.35215 10.20566,10.3941 8.77824,14.14849 -1.14488,3.01126 -1.14357,3.28788 0.0156,3.28788 0.5142,0 2.07506,0.43349 3.46859,0.96331 2.51849,0.95752 2.52461,0.98901 1.02032,5.25 -1.92786,5.46076 -1.3004,7.83766 2.69152,10.19575 2.61364,1.54391 2.94078,2.08999 1.79117,2.98992 -1.77477,1.38931 -1.26979,6.60102 0.6396,6.60102 0.77729,0 2.30907,1.75596 3.40397,3.90213 1.73733,3.40545 1.80356,4.05745 0.52032,5.12244 -2.40733,1.99791 -1.98374,15.04886 0.65641,20.22399 1.87379,3.67292 2.04873,5.18501 1.47053,12.71016 -0.36095,4.6977 -0.9161,10.46238 -1.23366,12.8104 -0.52473,3.87981 -0.20287,4.75456 3.52947,9.59237 4.53879,5.88311 5.03985,8.88889 2.10686,12.63851 -1.07554,1.375 -1.96553,3.5125 -1.97776,4.75 -0.0191,1.9294 0.5121,2.25643 3.72776,2.2951 2.0625,0.0248 5.1,0.66326 6.75,1.41879 1.65,0.75552 5.0777,1.41022 7.61711,1.45489 4.31503,0.0759 4.7906,-0.18093 7.26865,-3.92551 z"
       id="Ces"
       inkscape:label="Cesar"
       inkscape:connector-curvature="0" />
    <path
       style="fill:#ff6666;fill-opacity:1"
       d="m 522.67669,674.12099 c 0.92544,-2.93584 1.68262,-6.35859 1.68262,-7.6061 0,-1.24751 1.42961,-4.07323 3.1769,-6.27937 5.55612,-7.01517 7.54032,-20.65008 4.04688,-27.80916 -2.4889,-5.10048 -7.53373,-11.88529 -8.87019,-11.92953 -0.63052,-0.0209 -2.45854,1.45649 -4.06225,3.28302 -1.60372,1.82653 -3.67923,3.6139 -4.61225,3.97193 -0.93301,0.35803 -2.1705,1.69152 -2.74997,2.96331 -0.57946,1.27179 -3.16307,3.62392 -5.74135,5.22696 -2.57827,1.60304 -6.56145,4.42252 -8.85151,6.26551 l -4.16375,3.35088 2.33222,4.10595 c 2.31704,4.07922 2.32006,4.12864 0.46364,7.59232 l -1.86858,3.48637 5.10789,4.6079 c 7.12349,6.4262 8.64256,7.38033 10.83677,6.80653 1.28101,-0.33499 3.33999,0.78261 6.1877,3.35865 2.34732,2.12338 4.52317,3.87915 4.83523,3.90171 0.31206,0.0226 1.32456,-2.36104 2.25,-5.29688 z"
       id="Atl"
       inkscape:label="Atlántico"
       inkscape:connector-curvature="0" />
    <path
       style="fill:#ff6666;fill-opacity:1"
       d="m 593.67166,776.20888 c -2.84825,-3.14719 -3.39115,-6.31717 -1.75324,-10.23722 1.3936,-3.33536 1.38127,-3.36696 -1.56576,-4.01424 -3.77312,-0.82872 -4.29955,-1.73239 -2.8555,-4.90175 0.98239,-2.15611 0.79993,-3.23796 -1.17352,-6.95795 -1.82201,-3.43453 -3.55831,-5.00396 -7.88192,-7.12446 l -5.54515,-2.7196 2.98137,-2.54372 c 1.63975,-1.39904 3.71843,-3.64946 4.61927,-5.00092 1.54656,-2.32016 2.17502,-2.45966 11.26833,-2.50124 9.5366,-0.0436 9.61749,-0.0645 8.30312,-2.14646 -0.73001,-1.15634 -2.10902,-4.19686 -3.06447,-6.75671 -1.15602,-3.09722 -4.17369,-7.13063 -9.02027,-12.05647 -5.28909,-5.37559 -7.56134,-8.49842 -8.29941,-11.40618 -0.94679,-3.73009 -0.72435,-4.541 3.25161,-11.854 5.74878,-10.57374 11.1391,-17.00974 12.97205,-15.48853 2.28345,1.89509 7.29977,0.15285 8.9942,-3.12382 1.00858,-1.95038 2.27673,-2.91673 3.82763,-2.91673 1.27564,0 3.1221,-0.88705 4.10327,-1.97122 1.48756,-1.64374 1.61987,-2.61756 0.7964,-5.86176 -0.8229,-3.24197 -0.6814,-4.28865 0.84882,-6.27878 1.00999,-1.31353 1.84635,-3.40074 1.85858,-4.63824 0.0181,-1.82834 -0.52891,-2.25 -2.91874,-2.25 -3.88077,0 -4.59854,-1.41945 -1.96054,-3.87712 l 2.14284,-1.99636 -2.25067,-3.64165 c -2.65258,-4.29197 -2.39234,-9.54679 0.94275,-19.03571 1.13663,-3.23391 2.0666,-6.00794 2.0666,-6.1645 0,-0.15656 -2.97119,-0.28466 -6.60265,-0.28466 -5.60877,0 -7.88167,-0.59937 -15.09967,-3.98184 -6.50316,-3.04748 -8.92752,-3.75145 -10.33161,-3 -1.00902,0.54001 -2.87667,0.99395 -4.15033,1.00874 -1.27366,0.0148 -3.80459,1.26221 -5.62429,2.77203 l -3.30855,2.74512 1.03287,6.41356 c 1.02464,6.36244 1.00719,6.44703 -2.18976,10.61147 -2.96302,3.85972 -3.68513,4.24626 -8.96343,4.79795 -3.15743,0.33001 -6.75818,0.17945 -8.00168,-0.33459 -9.41091,-3.89029 -22.98778,-9.03244 -23.84845,-9.03244 -0.57549,0 0.53263,1.92694 2.4625,4.28209 4.64826,5.67258 5.7859,8.93117 5.83658,16.71791 0.0538,8.26704 -1.71308,14.45747 -5.53956,19.40835 -1.83663,2.37631 -3.31557,5.77352 -3.77289,8.66656 -0.4137,2.61702 -1.94424,7.60826 -3.4012,11.09165 -1.45696,3.48339 -2.87285,7.04584 -3.14644,7.91656 -0.30448,0.96906 1.27635,3.4082 4.07557,6.28838 2.51514,2.5879 4.57299,5.28455 4.57299,5.99257 0,0.70802 -1.125,2.34418 -2.5,3.63593 -3.51686,3.30392 -3.1971,7.10973 1.37575,16.37435 3.57408,7.2411 3.83634,8.34323 3.36945,14.15971 l -0.5063,6.30743 4.26886,1.27898 c 3.38515,1.01422 4.60251,2.02207 5.88055,4.86853 0.88643,1.97425 3.00285,5.27536 4.70316,7.33579 2.71339,3.2881 3.39624,3.63038 5.58348,2.7988 1.48348,-0.56402 3.06527,-0.5846 3.90852,-0.0508 0.77909,0.49314 3.25909,0.90352 5.51112,0.91194 3.80192,0.0142 4.64136,0.58426 11.74434,7.97524 6.06233,6.30815 8.53286,8.17926 11.90541,9.01686 2.34061,0.5813 5.60566,1.4534 7.25566,1.93798 4.67597,1.37326 4.99116,1.24272 2.81235,-1.16477 z"
       id="Mag"
       inkscape:label="Magdalena"
       inkscape:connector-curvature="0" />
    <path
       style="fill:#ff6666;fill-opacity:1"
       d="m 535.58363,826.47253 c 0.39838,-0.008 1.42243,-1.36365 2.27568,-3.01365 1.08045,-2.08935 2.29176,-3 3.9905,-3 1.44756,0 2.89202,-0.84624 3.55318,-2.08163 0.91126,-1.7027 0.67281,-2.74938 -1.30992,-5.75 -1.57734,-2.3871 -2.67764,-5.91836 -3.15023,-10.11024 -0.65196,-5.78287 -0.51798,-6.60126 1.30971,-8 2.02235,-1.54771 2.02318,-1.58649 0.12408,-5.79957 -2.31843,-5.14337 -9.68519,-12.22894 -12.73206,-12.24609 -3.17793,-0.0179 -13.28526,-20.72385 -13.28526,-27.2163 0,-3.6428 -0.63988,-5.18373 -3.57792,-8.61617 -1.96786,-2.299 -4.23714,-4.18 -5.04284,-4.18 -0.80571,0 -3.62981,-2.025 -6.27579,-4.5 -3.91405,-3.66114 -5.50283,-4.5 -8.5229,-4.5 -2.04162,0 -4.5352,0.44054 -5.54129,0.97899 -3.00592,1.60872 -4.28986,-0.93016 -3.09376,-6.11766 0.55309,-2.39873 1.01661,-5.57296 1.03005,-7.05383 0.0223,-2.45733 -0.34676,-2.71936 -4.22555,-3 -4.13903,-0.29947 -4.24916,-0.39889 -4.21791,-3.8075 0.0177,-1.925 0.35128,-5.075 0.74139,-7 0.67077,-3.30989 0.47892,-3.6479 -3.53209,-6.22288 -4.11474,-2.64158 -4.25125,-2.66151 -4.57175,-0.66754 -0.18169,1.13044 0.38081,2.84117 1.25,3.80163 2.02991,2.24302 1.99357,2.84744 -0.44468,7.39669 -1.11377,2.07805 -2.31131,5.89639 -2.6612,8.48519 -0.40337,2.98441 -1.34635,5.2112 -2.57681,6.08495 -1.06735,0.75792 -1.54568,1.65792 -1.06296,2 0.48273,0.34208 2.33934,2.50032 4.1258,4.7961 2.7974,3.59494 3.16289,4.70703 2.634,8.01453 -0.59168,3.70019 -6.25396,11.31133 -8.41502,11.31133 -0.55318,0 -0.62368,0.89382 -0.16771,2.12642 0.47203,1.27601 2.63343,2.82746 5.40451,3.87934 6.97928,2.64928 11.4123,5.72078 13.77558,9.54465 1.2451,2.01461 2.93893,3.44959 4.07185,3.44959 1.09878,0 2.43376,1.08395 3.07895,2.5 0.79263,1.73962 1.93504,2.5 3.75606,2.5 1.43934,0 3.56321,0.66277 4.71971,1.47281 1.78591,1.2509 2.02556,2.1926 1.59054,6.25 -0.69244,6.45828 -1.62345,7.93455 -5.47116,8.67553 -5.56314,1.07132 -6.39199,2.01427 -4.4183,5.02651 1.27764,1.94992 1.44453,3.07412 0.67093,4.5196 -1.34043,2.50462 -1.31607,8.9357 0.0487,12.85064 0.8995,2.58031 1.67373,3.14424 4.66685,3.39922 3.01223,0.2566 3.76237,0.81133 4.67159,3.4546 l 1.08315,3.14891 3.75,-1.50587 c 2.0625,-0.82822 3.75,-2.10617 3.75,-2.83989 0,-2.20363 1.38292,-2.4155 7.07455,-1.08386 7.73398,1.80948 13.46754,5.7143 14.93954,10.1745 0.99561,3.01671 1.56395,3.53692 3.34273,3.05965 1.17875,-0.31627 2.46912,-0.58119 2.8675,-0.5887 z"
       id="Suc"
       inkscape:label="Sucre"
       inkscape:connector-curvature="0" />
    <path
       style="fill:#ff6666;fill-opacity:1"
       d="m 451.94118,893.16157 c 2.24502,-2.86148 6.01367,-8.80269 8.37477,-13.20269 6.07542,-11.32176 6.56823,-11.79706 10.25503,-9.89054 3.91942,2.02681 5.78833,1.17044 5.78833,-2.65234 0,-2.66324 0.55993,-3.34436 3.93066,-4.78138 2.16187,-0.92166 4.64823,-2.88941 5.52526,-4.37279 0.87702,-1.48337 3.87765,-5.19507 6.66805,-8.24822 l 5.07347,-5.55117 2.77589,1.63975 c 2.28182,1.34791 3.35872,1.43659 6.0505,0.49823 1.80104,-0.62785 4.89497,-1.14843 6.87539,-1.15685 4.58832,-0.0195 5.53902,-0.67523 7.37572,-5.08716 1.15824,-2.7822 2.23537,-3.74959 4.73056,-4.24863 1.77696,-0.35539 6.28635,-1.83961 10.02086,-3.29825 6.30407,-2.46229 6.818,-2.89179 7.18103,-6.00137 0.4597,-3.93769 -1.34764,-4.53164 -2.96799,-0.97537 -0.94397,2.0718 -4.98314,3.78934 -9.58088,4.07399 -0.46281,0.0287 -1.81281,-1.96215 -3,-4.424 -2.31078,-4.79185 -6.27462,-7.69687 -12.38158,-9.07421 -2.69858,-0.60863 -3.92622,-0.463 -4.71302,0.55906 -0.58515,0.76014 -3.43828,2.30474 -6.34027,3.43245 l -5.27635,2.05039 -0.97365,-2.5609 c -0.53551,-1.40849 -0.97365,-2.98159 -0.97365,-3.49579 0,-0.51419 -1.59099,-0.9349 -3.53554,-0.9349 -3.24731,0 -3.69568,-0.37361 -5.5,-4.58291 -2.22205,-5.18383 -2.45547,-8.71013 -0.87641,-13.23984 0.92777,-2.66138 0.77198,-3.56508 -1.05746,-6.1343 l -2.14553,-3.0131 4.30747,-1.94714 c 2.36911,-1.07092 5.07014,-2.17899 6.0023,-2.46237 1.81468,-0.55166 3.42701,-6.55747 2.44643,-9.11281 -0.36529,-0.95194 -1.88785,-1.50753 -4.13131,-1.50753 -2.81926,0 -3.78802,-0.51618 -4.6919,-2.5 -0.6265,-1.375 -1.95341,-2.5 -2.94871,-2.5 -1.06696,0 -2.74526,-1.64733 -4.08948,-4.01402 -1.78343,-3.13998 -3.80407,-4.76378 -9.27986,-7.45734 -3.85,-1.89383 -7.76267,-3.66387 -8.69483,-3.93342 -0.99627,-0.2881 -1.97415,-1.97906 -2.37254,-4.10263 -0.52963,-2.8232 -1.03331,-3.46538 -2.30517,-2.9391 -3.51565,1.45472 -5.12746,1.63175 -5.12746,0.56314 0,-0.65008 -1.80735,-1.11663 -4.32569,-1.11663 -3.32109,0 -4.87112,0.58059 -6.67431,2.5 -1.29175,1.375 -3.45455,2.5 -4.80624,2.5 -4.29021,0 -11.19376,8.71421 -11.19376,14.12966 0,1.0997 -1.3347,3.12253 -2.966,4.49518 -1.75754,1.47887 -3.22891,3.89719 -3.61129,5.93544 -0.47132,2.51237 -1.16703,3.43972 -2.58051,3.43972 -1.10332,0 -2.66751,1.28691 -3.63871,2.99368 -0.93692,1.64652 -2.49099,2.99652 -3.45349,3 -2.20135,0.008 -2.18786,0.23982 0.24626,4.23215 1.09795,1.80079 2.00484,4.62417 2.01531,6.27417 0.0244,3.84557 0.28304,4.17492 7.73843,9.85509 5.0996,3.88533 6.25,5.28818 6.25,7.62157 0,1.57287 0.21967,3.45907 0.48816,4.19155 0.26849,0.73249 -2.22252,4.70679 -5.53556,8.83179 -8.26769,10.29392 -11.31137,16.93948 -11.05587,24.13933 0.17898,5.04355 -0.0829,5.86195 -2.47879,7.74656 -1.88071,1.47936 -3.08231,3.8215 -4.0328,7.86067 -2.36001,10.02897 -1.86217,13.91848 3.0816,24.07602 l 4.46675,9.17742 18.78325,-0.0473 18.78326,-0.0473 4.08187,-5.20268 z"
       id="Cor"
       inkscape:label="Córdoba"
       inkscape:connector-curvature="0" />
    <path
       style="fill:#ff6666;fill-opacity:1"
       d="m 576.46344,918.1699 c 3.08227,-2.86606 7.69477,-7.73454 10.25,-10.81883 4.60553,-5.55913 5.38727,-8.16898 3.71188,-12.39219 -0.59111,-1.49002 -0.0627,-2.83813 2.07214,-5.28692 3.77522,-4.33031 7.86185,-12.49644 7.86185,-15.70997 0,-1.40986 -1.19746,-5.36232 -2.66102,-8.78324 -1.46356,-3.42093 -3.20747,-8.46987 -3.87537,-11.21987 l -1.21435,-5 5.03703,-5.19514 5.03702,-5.19513 0.46055,-10.35517 c 0.40617,-9.13265 0.20999,-10.84628 -1.66166,-14.51503 -2.67695,-5.24724 -2.99606,-16.61644 -0.5425,-19.3276 1.99296,-2.20219 0.47161,-5.56172 -3.1405,-6.93505 -1.6015,-0.60888 -2.4392,-1.71063 -2.4392,-3.20802 0,-2.47119 -2.88113,-4.202 -9.0076,-5.41121 -6.62283,-1.30719 -9.58766,-3.22988 -15.85542,-10.28223 -5.52316,-6.21454 -6.7129,-7.07542 -9.77836,-7.07542 -1.91956,0 -4.41744,-0.4963 -5.55085,-1.10288 -1.52294,-0.81505 -2.74544,-0.7905 -4.68426,0.0941 -2.4464,1.11616 -2.88386,0.90379 -6.48004,-3.14577 -2.12109,-2.3885 -4.69656,-5.98933 -5.72326,-8.00184 -1.41213,-2.768 -2.90825,-4.00721 -6.14347,-5.08856 l -4.27674,-1.42945 0.3517,-7.13529 c 0.3332,-6.76016 0.13605,-7.53509 -3.75,-14.73958 -4.86271,-9.01514 -5.18001,-12.71576 -1.42623,-16.63386 2.43127,-2.5377 2.55357,-3.02037 1.33989,-5.28815 -0.73457,-1.37256 -2.16847,-2.75991 -3.18644,-3.083 -1.01797,-0.32309 -2.52268,-1.8866 -3.34379,-3.47446 -1.34635,-2.60355 -1.32144,-3.24665 0.25375,-6.54986 l 1.74669,-3.66284 -4.39345,-3.89884 c -2.54549,-2.25893 -5.06615,-3.69873 -5.99278,-3.42307 -2.2107,0.65763 -4.88089,-0.99464 -12.51413,-7.74352 l -6.56781,-5.80689 2.05307,-4.02436 c 1.94144,-3.80554 1.96221,-4.16305 0.38183,-6.575 -0.91918,-1.40285 -1.95948,-2.11058 -2.31177,-1.57272 -0.35229,0.53785 -1.84676,1.27293 -3.32103,1.6335 -1.47428,0.36057 -4.34973,2.22986 -6.38988,4.15397 -2.04016,1.92411 -4.31029,3.49839 -5.04475,3.49839 -1.02023,0 -1.10522,0.60535 -0.36012,2.5651 1.36197,3.58224 1.21633,8.18729 -0.27475,8.68793 -0.98172,0.32962 -0.95474,0.97402 0.12569,3.00245 1.22832,2.30606 1.15216,2.89667 -0.71094,5.51315 -1.81086,2.54312 -1.94559,3.44122 -1.01944,6.79547 0.77186,2.79546 0.76105,3.96711 -0.0391,4.23382 -2.16719,0.72239 -1.03675,2.26333 3.87958,5.28838 l 4.98583,3.06781 -1.48583,2.87329 c -0.81717,1.58028 -1.48579,4.21912 -1.48579,5.86407 0,2.7186 0.38681,3.06817 4.25,3.8408 4.03027,0.80604 4.24762,1.02881 4.20387,4.30885 -0.0254,1.90237 -0.40929,5.41204 -0.85317,7.79926 -0.77334,4.15917 -0.72197,4.29487 1.23039,3.25 4.15323,-2.22275 8.55102,-1.32506 12.22274,2.49492 1.89539,1.97192 4.79617,4.2723 6.44617,5.11195 3.91186,1.99066 9.30056,7.09632 11.08532,10.50307 0.77807,1.48519 1.41598,4.63519 1.41756,7 0.004,6.21773 8.65256,23.15281 12.07854,23.65194 3.60301,0.52491 12.37433,10.10221 14.22418,15.5312 1.49899,4.39929 1.48206,4.65979 -0.36708,5.64942 -3.22084,1.72375 -2.69726,10.5364 0.94852,15.96484 2.81333,4.18894 2.84706,4.39067 1.32095,7.90048 -0.86135,1.98098 -1.82302,5.56614 -2.13704,7.96701 -0.55988,4.28057 -0.68733,4.40876 -6.57095,6.60898 -9.03266,3.37784 -9.5,3.62951 -9.5,5.11593 0,0.75689 2.3625,2.55465 5.25,3.99502 2.8875,1.44037 7.1625,4.46665 9.5,6.72506 3.93416,3.80105 4.25,4.49461 4.25,9.33289 0,6.04612 1.3686,10.35689 3.28816,10.35689 0.73571,0 2.61503,1.33329 4.17627,2.96287 l 2.83861,2.96288 -6.20024,2.68897 c -4.24108,1.8393 -6.03255,3.12596 -5.66954,4.07194 0.29188,0.76064 0.0534,3.60845 -0.52993,6.32848 -1.02287,4.7695 -0.95995,5.03404 1.76803,7.43358 3.85477,3.39066 4.897,3.19529 7.84207,-1.47 2.09606,-3.32036 2.85336,-3.85279 4.34479,-3.0546 4.01676,2.14971 4.24106,3.53683 1.1555,7.1459 -2.71021,3.17004 -2.93552,4.04498 -2.97308,11.54512 -0.0519,10.36535 1.83503,13.40604 8.28194,13.34588 3.62735,-0.0339 4.91536,-0.72516 9.78155,-5.25 z"
       id="Bol"
       inkscape:label="Bolívar"
       inkscape:connector-curvature="0" />
  </g>
</svg>
