<?xml version="1.0" encoding="UTF-8" standalone="no"?>
<!-- Created with Inkscape (http://www.inkscape.org/) -->

<svg
   xmlns:dc="http://purl.org/dc/elements/1.1/"
   xmlns:cc="http://creativecommons.org/ns#"
   xmlns:rdf="http://www.w3.org/1999/02/22-rdf-syntax-ns#"
   xmlns:svg="http://www.w3.org/2000/svg"
   xmlns="http://www.w3.org/2000/svg"
   xmlns:sodipodi="http://sodipodi.sourceforge.net/DTD/sodipodi-0.dtd"
   xmlns:inkscape="http://www.inkscape.org/namespaces/inkscape"
   version="1.0"
   width="986"
   height="1424"
   id="svg2"
   sodipodi:version="0.32"
   inkscape:version="0.48.4 r9939"
   sodipodi:docname="CO_Re_Nor.svg"
   inkscape:output_extension="org.inkscape.output.svg.inkscape">
  <metadata
     id="metadata76">
    <rdf:RDF>
      <cc:Work
         rdf:about="">
        <dc:format>image/svg+xml</dc:format>
        <dc:type
           rdf:resource="http://purl.org/dc/dcmitype/StillImage" />
        <dc:title></dc:title>
      </cc:Work>
    </rdf:RDF>
  </metadata>
  <sodipodi:namedview
     inkscape:window-height="776"
     inkscape:window-width="1271"
     inkscape:pageshadow="2"
     inkscape:pageopacity="0.0"
     guidetolerance="10.0"
     gridtolerance="10.0"
     objecttolerance="10.0"
     borderopacity="1.0"
     bordercolor="#666666"
     pagecolor="#ffffff"
     id="base"
     showgrid="false"
     inkscape:zoom="1.2977528"
     inkscape:cx="306.2715"
     inkscape:cy="1168.2342"
     inkscape:window-x="-8"
     inkscape:window-y="0"
     inkscape:current-layer="g2161"
     showguides="false"
     inkscape:guide-bbox="true"
     inkscape:window-maximized="0"
     inkscape:object-paths="true"
     inkscape:snap-bbox="true"
     inkscape:snap-smooth-nodes="true"
     inkscape:snap-midpoints="false" />
  <defs
     id="defs5">
    <inkscape:perspective
       sodipodi:type="inkscape:persp3d"
       inkscape:vp_x="0 : 712 : 1"
       inkscape:vp_y="0 : 1000 : 0"
       inkscape:vp_z="986 : 712 : 1"
       inkscape:persp3d-origin="493 : 474.66667 : 1"
       id="perspective78" />
  </defs>
  <g
     transform="translate(3.7771873,3.7771883)"
     id="g2161">
    <path
       style="fill:#d40000;fill-opacity:1;stroke:none;stroke-opacity:1"
       d="m 287.22016,683.00777 c 3.01056,-1.14426 7.6954,-2.00698 10.90002,-2.00727 l 5.62019,-5e-4 -0.12019,-7.75 c -0.11208,-7.2275 0.0147,-7.7273 1.87982,-7.41335 1.1,0.18516 2.90091,1.17127 4.00202,2.19135 1.95014,1.80664 2.06676,1.80582 4.5,-0.0316 2.48204,-1.87431 2.51552,-1.86955 5.24798,0.74574 2.09992,2.00988 2.75752,3.59253 2.7818,6.69499 0.0175,2.2346 0.58,4.77691 1.25,5.64957 1.73238,2.25635 5.48767,4.09536 6.15568,3.0145 0.30737,-0.49734 3.02612,-2.54193 6.04167,-4.54354 3.90275,-2.59049 5.41624,-4.20754 5.25183,-5.61118 -0.18776,-1.60288 1.35969,-2.62135 8.26902,-5.44235 10.04728,-4.10218 11.25067,-4.21518 13.35516,-1.25409 l 1.5991,2.25 3.31376,-3.79886 c 2.42412,-2.77898 3.79586,-3.61386 5.10949,-3.10977 1.3927,0.53443 1.72243,0.25649 1.46918,-1.2384 -0.1796,-1.06011 0.64805,-3.16647 1.83922,-4.6808 3.10097,-3.94225 4.76611,-12.32532 2.99269,-15.06655 -3.3111,-5.11805 -2.94422,-6.96642 2.62121,-13.20573 2.89447,-3.24494 6.04649,-7.13739 7.00448,-8.64989 0.958,-1.5125 2.39783,-2.75 3.19963,-2.75 1.1519,0 1.33908,-0.99678 0.89201,-4.75 -0.3112,-2.6125 -0.76751,-5.38818 -1.01403,-6.16819 -0.7212,-2.28194 5.58776,-8.08181 8.79121,-8.08181 1.86158,0 3.32145,-0.82516 4.4164,-2.49627 0.8996,-1.37295 3.38413,-3.78214 5.52119,-5.35375 2.13705,-1.57161 5.48201,-4.94829 7.43323,-7.50373 C 419.73039,579.78274 421.87815,578 423.14151,578 426.43945,578 431,574.79736 431,572.4814 c 0,-1.14807 -1.35593,-3.93117 -3.01317,-6.18467 -2.57256,-3.49814 -2.86501,-4.48693 -2,-6.7621 2.67263,-7.02953 0.92086,-6.40569 -8.37694,2.98323 L 408.21978,572 l -5.06185,0 c -4.86206,0 -5.18215,-0.17485 -8.10989,-4.43018 C 392.3035,563.58077 392,562.37927 392,555.5031 c 0,-6.60494 0.33772,-8.07932 2.5,-10.91421 2.66429,-3.49307 3.04608,-4.58889 1.59878,-4.58889 -0.49568,0 -1.8305,1.575 -2.96628,3.5 -1.13578,1.925 -2.86773,3.49878 -3.84877,3.4973 -0.98105,-10e-4 -3.69392,-1.68899 -6.0286,-3.75 l -4.24488,-3.7473 1.06301,-4.5 c 0.58466,-2.475 0.81665,-5.74728 0.51553,-7.27174 -0.50616,-2.56252 -0.13388,-2.95466 4.93186,-5.19497 3.01364,-1.33278 5.47935,-2.69472 5.47935,-3.02653 0,-0.33182 -1.43079,-1.20491 -3.17953,-1.9402 -3.57031,-1.5012 -5.77814,-6.87139 -5.80529,-14.12039 -0.0182,-4.87417 -3.58602,-8.77273 -11.76817,-12.8593 -2.88915,-1.44298 -5.8099,-3.51533 -6.49055,-4.60523 -1.80521,-2.8906 -2.61229,-2.48378 -4.69041,2.36427 l -1.86287,4.34591 -6.59606,0.61595 c -3.62784,0.33877 -7.49449,1.09677 -8.59256,1.68444 -1.49236,0.79868 -2.70853,0.70028 -4.81629,-0.38968 -2.77805,-1.43659 -2.88549,-1.38234 -7.25903,3.66471 -2.44158,2.81758 -5.17352,6.30846 -6.07097,7.75751 -0.89745,1.44905 -3.03495,3.21586 -4.75,3.92626 -2.46056,1.0192 -3.11827,1.89339 -3.11827,4.14463 0,3.97864 -4.38977,6.35771 -8.02146,4.34729 -1.3632,-0.75463 -2.74322,-1.38801 -3.06671,-1.40749 -0.3235,-0.0195 -2.7985,4.04558 -5.5,9.03349 -2.70151,4.98791 -7.06976,11.73791 -9.70723,15 L 284.9092,547 l -19.44456,0 -19.44457,0 -4.68744,-9.25 c -2.6183,-5.16682 -4.99926,-11.45712 -5.39383,-14.25 -0.97496,-6.9011 1.49448,-18.30469 4.57631,-21.13292 1.79249,-1.64497 2.38086,-3.36072 2.57194,-7.5 0.33072,-7.1641 3.61798,-14.38249 10.89419,-23.92218 5.80815,-7.61494 7.26314,-11.62851 5.25345,-14.49155 -0.40408,-0.57565 -3.54719,-3.18945 -6.98469,-5.80844 -5.25213,-4.00154 -6.25,-5.24723 -6.25,-7.80223 0,-3.04869 -2.67094,-9.84813 -3.86394,-9.83646 -0.34983,0.003 -5.7282,3.83779 -11.95192,8.52081 l -11.31587,8.51459 -4.05252,-1.09123 c -3.9147,-1.05412 -4.14913,-0.97831 -6.89349,2.22919 -2.89393,3.38231 -3.79633,5.47866 -1.83713,4.26781 1.62768,-1.00597 7.91487,2.75157 7.91487,4.73032 0,0.9476 0.66889,2.09724 1.48642,2.55475 1.07629,0.60233 1.90775,4.68581 3.01345,14.79969 0.83986,7.68232 1.76428,14.61486 2.05426,15.40566 0.28998,0.79079 -0.50357,3.78816 -1.76345,6.66082 -1.92561,4.39063 -2.87509,5.39904 -5.95765,6.32746 -3.17974,0.95769 -4.17626,0.81267 -7.5,-1.09149 -2.10817,-1.20777 -4.0061,-2.32521 -4.21763,-2.4832 -1.00169,-0.74818 2.57659,-6.8783 5.77809,-9.89873 2.80731,-2.64853 3.3187,-3.64048 2.36731,-4.59187 -0.95139,-0.95139 -1.6137,-0.85141 -3.06591,0.46283 C 205.17608,489.24563 203.8636,490 203.27825,490 202.03917,490 201,492.32935 201,495.10677 c 0,3.0299 -3.78364,13.08387 -6.11629,16.25232 -2.91021,3.95296 -1.6977,5.77882 8.72656,13.14091 6.0104,4.24481 10.16373,8.19398 14.19791,13.5 4.72397,6.21328 6.28373,7.58578 9.09143,8 2.46405,0.36352 4.44416,1.74688 7.25415,5.06796 4.36363,5.1573 4.89521,8.54369 2.81485,17.93204 -1.9542,8.81903 -1.59282,8.38902 -5.21854,6.20947 -1.91305,-1.15001 -6.00238,-2.19426 -9.94047,-2.53841 l -6.69041,-0.58468 1.3609,3.85719 c 1.27459,3.61257 1.21916,3.99034 -0.87405,5.95681 -1.42765,1.3412 -3.55351,2.09962 -5.88531,2.09962 -4.0736,0 -5.72331,1.92881 -5.71699,6.68426 0.005,3.61307 2.46171,7.49167 8.97091,14.16188 5.53138,5.66821 5.74404,6.59109 3.51664,15.26088 -0.49499,1.92669 0.15893,4.07541 2.50588,8.23397 l 3.17566,5.62696 6.16358,-0.15128 c 3.38998,-0.0832 7.06359,-0.70934 8.16359,-1.39142 1.1,-0.68207 6.275,-1.39428 11.5,-1.58269 l 9.5,-0.34256 0.30321,6.46165 c 0.35595,7.58557 1.28182,9.03835 5.76022,9.03835 1.82519,0 3.5078,0.3375 3.73912,0.75 0.23133,0.4125 -0.0111,4.47438 -0.53868,9.02641 -0.81249,7.00994 -0.7148,8.64954 0.63842,10.71482 0.87874,1.34112 1.60772,3.91674 1.61995,5.72359 0.0122,1.80685 0.90222,4.41018 1.97776,5.78518 1.07554,1.375 1.96776,3.4 1.9827,4.5 0.0391,2.87699 7.3207,3.13668 14.23746,0.50777 z"
       id="Ant"
       inkscape:label="Antioquia" />
    <g
       id="Isl"
       inkscape:label="San Andrés">
      <g
         id="g3350">
        <path
           id="path3172"
           style="fill:#d40000;fill-opacity:1;stroke:none;stroke-opacity:1"
           d="m 118.81117,257.96719 c 2.19832,-2.79472 5.79247,-9.68886 13.01622,-24.96719 4.59186,-9.71186 5.01447,-11.25061 5.6302,-20.5 0.72132,-10.83544 3.41503,-18.65757 8.11864,-23.57528 C 148.90324,185.44628 150,181.0682 150,171.2658 l 0,-8.24741 3.48762,-2.2592 c 4.02386,-2.60655 3.92418,-1.80083 2.06906,-16.72455 -0.99199,-7.98018 -1.90117,-11.81337 -2.99095,-12.61024 C 151.70458,130.79471 151,129.80152 151,129.21731 c 0,-1.39256 6.25994,-3.43853 8.21971,-2.68649 1.06449,0.40848 1.67212,-0.18464 2.01232,-1.96429 0.43322,-2.26624 -0.13583,-2.85592 -5.12233,-5.308 -3.10436,-1.52655 -5.7541,-3.5401 -5.93302,-4.50853 -0.41121,-2.22564 1.70793,-2.24954 6.27684,-0.0708 4.5549,2.17209 5.30067,1.27715 2.59026,-3.10838 C 156.88472,108.07741 156.98716,106 159.31847,106 c 0.66024,0 1.74733,-0.87571 2.41575,-1.94603 1.46608,-2.34757 7.08484,-4.04081 13.43399,-4.04839 7.79748,-0.0093 10.70383,-2.215864 4.66548,-3.542107 -1.74146,-0.38249 -4.07632,-1.543245 -5.18856,-2.579455 C 173.53289,92.847808 171.42503,92 169.96101,92 c -1.80559,0 -3.43379,-1.007942 -5.06144,-3.133301 -1.31976,-1.723316 -3.10263,-3.944814 -3.96193,-4.936661 -0.8593,-0.991848 -2.42861,-2.956862 -3.48735,-4.366699 -1.05874,-1.409836 -2.60568,-2.542962 -3.43764,-2.518056 -0.83196,0.02491 -6.23222,4.524906 -12.00058,10 C 136.24371,92.520377 131.00797,97 130.37708,97 128.30359,97 126,101.84981 126,106.21519 c 0,8.59364 -2.55759,17.27283 -6.7566,22.92858 -2.18715,2.94593 -4.93666,6.21347 -6.11002,7.26122 -2.63882,2.35632 -2.83917,8.16736 -0.51659,14.98374 1.54822,4.54379 1.53344,4.82266 -0.34862,6.57606 -1.19851,1.11658 -2.19056,3.73207 -2.54242,6.70298 -0.31735,2.67955 -1.27892,6.88799 -2.13682,9.35207 -1.70853,4.90728 -2.08822,9.40677 -0.72258,8.56276 0.4765,-0.29449 1.63091,0.30939 2.56537,1.34195 0.93446,1.03257 3.2446,2.16735 5.13365,2.52174 1.88905,0.35438 3.43463,1.10353 3.43463,1.66476 0,1.84421 -2.04595,4.88895 -3.28518,4.88895 -0.8359,0 -1.27456,2.49534 -1.40634,8 -0.10534,4.4 -0.31388,9.2375 -0.46344,10.75 -0.14956,1.5125 0.0245,5.48326 0.38671,8.82391 l 0.65862,6.07392 -4.44552,5.4194 c -2.64712,3.22702 -4.66995,6.838 -5.0003,8.92608 -0.30514,1.92868 -0.72369,4.33563 -0.93013,5.34878 -0.20644,1.01314 1.16982,4.65315 3.05834,8.08891 3.21629,5.85132 3.65085,6.23928 6.86365,6.12771 2.36491,-0.0821 4.03384,-0.88682 5.37476,-2.59152 z M 223.43186,177.0753 c 1.09756,-1.21279 4.33411,-2.38797 8.75024,-3.17718 6.23085,-1.11351 7.3438,-1.6698 10.03123,-5.01396 3.28667,-4.08981 8.96182,-6.87532 14.05691,-6.89947 3.84334,-0.0182 4.64752,-0.51237 7.51105,-4.61535 1.68303,-2.4115 2.46781,-5.79454 3.41635,-14.72725 l 1.23141,-11.5966 3.78548,-1.51465 C 274.29654,128.69778 276,127.34119 276,126.51619 c 0,-1.31438 -0.49938,-1.30018 -4.03556,0.11471 -3.77816,1.51172 -4.16085,1.50132 -6,-0.16308 -2.64205,-2.39103 -2.47274,-3.91519 0.58993,-5.31064 2.40766,-1.097 2.4651,-1.2913 1,-3.38302 C 265.47625,114.80723 265.43909,104.7104 267.5,103 c 1.9896,-1.65122 1.9018,-3 -0.19528,-3 C 265.07577,100 260,95.091044 260,92.935354 260,92.005598 259.325,90.684689 258.5,90 c -1.22726,-1.018537 -1.5,-0.953352 -1.5,0.358503 0,0.881866 -1.10384,1.880439 -2.45298,2.219051 -2.19124,0.549968 -2.48467,1.216533 -2.75,6.247095 l -0.29702,5.631431 -5.91656,3.90967 -5.91656,3.90966 -3.34088,-1.79918 c -3.28653,-1.76992 -3.41907,-1.75996 -8.14766,0.61229 -4.13063,2.07227 -5.24705,3.32581 -7.93666,8.91148 -4.21149,8.74625 -5.92198,14.33496 -6.58035,21.5 -0.30322,3.3 -0.76964,6.98348 -1.03649,8.18551 -0.26962,1.21457 0.15021,2.71283 0.945,3.37245 0.78659,0.65281 1.43016,1.81807 1.43016,2.58947 0,0.77139 0.9,3.9632 2,7.09289 2.41764,6.87863 2.43733,7.25968 0.375,7.25968 -1.29764,0 -1.49638,0.65473 -0.98653,3.25 0.57048,2.9039 2.87096,5.75 4.64767,5.75 0.35964,0 1.43771,-0.86612 2.39572,-1.9247 z m 23.53062,-90.265398 c 1.39915,-1.501812 1.68436,-2.41013 0.90755,-2.89023 -0.8238,-0.509137 -0.70435,-1.957665 0.43787,-5.309902 C 249.84205,74.107291 249.83035,74 247.80532,74 c -5.1678,0 -10.01927,2.380807 -11.5981,5.691637 -1.54341,3.236569 -1.51433,3.378376 1.29403,6.309672 3.40074,3.549607 6.64896,3.827211 9.46123,0.808593 z" />
      </g>
    </g>
    <path
       style="fill:#d40000;fill-opacity:1;stroke:none;stroke-opacity:1"
       d="m 321.85288,733.25 c 0.50778,-0.9625 0.84268,-4.9 0.74422,-8.75 -0.11901,-4.65379 0.38826,-8.37527 1.51347,-11.10318 1.46839,-3.55989 2.20205,-4.18736 5.54096,-4.73899 2.11666,-0.3497 4.91443,-0.64077 6.21726,-0.64682 1.32031,-0.006 4.94098,-2.09312 8.18006,-4.71505 l 5.81127,-4.70404 8.92989,0.28269 8.92989,0.2827 1.64005,-4.09889 c 0.90203,-2.25439 1.64173,-6.22729 1.64379,-8.82866 0.002,-2.96112 0.75021,-5.9541 2,-8.00393 2.53768,-4.16219 2.75166,-11.99872 0.35276,-12.91927 -1.09291,-0.41939 -2.5167,0.38909 -4.25,2.4133 -3.31263,3.86861 -6.7608,4.79461 -8.15477,2.18994 -1.35161,-2.52549 -2.89715,-2.41675 -11.08067,0.77962 -5.55762,2.17073 -6.77758,3.02976 -6.32551,4.45411 0.41023,1.29252 -0.59119,2.48695 -3.74273,4.46409 -2.36655,1.48467 -5.84303,3.95986 -7.7255,5.50042 -3.35245,2.74355 -3.48266,2.76604 -6.34542,1.09649 -4.29694,-2.50596 -6.7319,-6.45176 -6.7319,-10.9089 0,-5.39808 -1.57212,-6.7365 -5.02486,-4.27792 -2.68294,1.91041 -2.73063,1.90995 -4.4984,-0.0434 -3.01832,-3.33521 -3.67132,-2.29687 -3.31781,5.2757 l 0.33845,7.25 -8.99869,0.58759 C 286.4757,684.80736 285,685.38876 285,689.01183 c 0,2.66714 0.17928,2.77381 3.83725,2.28317 2.4556,-0.32936 4.94284,0.057 6.9078,1.07316 2.85068,1.47414 3.03544,1.89373 2.58041,5.85984 -0.74181,6.46566 -1.09491,7.20823 -2.76751,5.8201 -0.7801,-0.64743 -3.12541,-1.03561 -5.21179,-0.86263 -3.36996,0.27942 -3.90907,0.70522 -4.82952,3.81453 -0.56986,1.925 -1.59423,4.48292 -2.27638,5.68426 -1.808,3.18412 -1.61503,10.95795 0.29016,11.68904 0.99955,0.38356 1.92382,-0.27615 2.66454,-1.90186 1.3422,-2.94579 6.72784,-6.0567 7.2196,-4.17025 1.97555,7.57854 1.42067,7.17369 10.26266,7.48773 l 8.13477,0.28893 3.844,4.36688 c 4.38326,4.97948 4.92134,5.22306 6.19689,2.80527 z"
       id="Cal"
       inkscape:label="Caldas" />
    <path
       style="fill:#d40000;fill-opacity:1;stroke:none;stroke-opacity:1"
       d="m 318.41774,740.47174 c 0.49824,-1.98517 -0.16839,-3.48884 -3.10336,-7 L 311.57648,729 l -8.26792,0 -8.26791,0 L 293,725 c -1.12236,-2.2 -2.24736,-4 -2.5,-4 -0.25264,0 -1.39618,1.83633 -2.54118,4.08073 l -2.08183,4.08072 -3.1885,-2.45136 c -4.39478,-3.37878 -4.85507,-9.41023 -1.23737,-16.21419 1.40189,-2.63658 2.54888,-5.63789 2.54888,-6.66959 0,-2.44885 3.88836,-3.88096 8.50374,-3.13199 3.63724,0.59024 3.64366,0.58483 3.32027,-2.80147 L 295.5,694.5 l -6.5,-0.0257 -6.5,-0.0257 -0.31312,-3.2211 c -0.24151,-2.48443 -0.89116,-3.36618 -2.84059,-3.85546 -3.74376,-0.93962 -10.0618,1.32597 -13.04986,4.67955 -1.46117,1.63991 -3.64238,2.94839 -4.91493,2.94839 -1.76632,0 -2.76944,1.08289 -4.4001,4.75 -3.04636,6.85079 -3.50241,10.00626 -1.73826,12.02714 0.82721,0.94757 2.00986,3.30146 2.62812,5.23087 1.44443,4.50761 4.2255,6.25207 8.64535,5.4229 3.16028,-0.59288 3.5945,-0.35692 5.6008,3.04352 1.19621,2.02742 3.17086,4.06487 4.38811,4.52767 2.23256,0.84882 3.94205,5.66798 2.93839,8.28348 -0.80446,2.09638 12.48547,4.41716 26.19768,4.57482 l 12.14159,0.1396 0.63456,-2.52826 z"
       id="Ris"
       inkscape:label="Risaralda" />
    <path
       style="fill:#d40000;fill-opacity:1;stroke:none;stroke-opacity:1"
       d="m 297.1458,783.75 c 3.66783,-4.19685 5.80949,-10.04723 5.83224,-15.93191 0.0204,-5.27669 0.25373,-5.84058 3.27196,-7.90686 C 312.22762,755.81894 317,750.66292 317,748.29705 317,746.06499 316.73583,746 307.66277,746 l -9.33724,0 -4.26784,4.0599 c -4.02368,3.82764 -4.37263,3.96505 -6.09975,2.40204 -1.00755,-0.91183 -2.31027,-1.36222 -2.89493,-1.00088 -1.49546,0.92424 -1.32674,10.69028 0.22575,13.06643 0.70881,1.08488 3.02931,6.36001 5.15666,11.72251 2.12735,5.3625 4.06278,9.75 4.30095,9.75 0.23818,0 1.31792,-1.0125 2.39943,-2.25 z"
       id="Qui"
       inkscape:label="Quindío" />
    <path
       style="fill:#d40000;fill-opacity:1;stroke:none;stroke-opacity:1"
       d="m 229.68252,789.71556 c 4.15792,-2.31856 7.78137,-4.78564 8.05212,-5.4824 0.27074,-0.69676 -0.68379,-2.19192 -2.12119,-3.32258 C 233.90526,779.56691 233,777.88324 233,776.04986 c 0,-1.54273 -0.675,-3.36517 -1.5,-4.04986 -2.48944,-2.06605 -1.81612,-6.38774 1.44839,-9.29643 1.62162,-1.44487 3.49337,-4.446 4.15945,-6.66917 1.40117,-4.67668 10.75912,-16.16252 16.73016,-20.5344 2.37251,-1.73711 4.7534,-4.61462 5.6558,-6.83553 1.51208,-3.7214 1.4886,-3.89047 -0.78903,-5.68206 -1.29112,-1.01559 -2.87994,-3.62372 -3.53073,-5.79584 -0.65078,-2.17212 -1.82336,-4.48057 -2.60572,-5.12987 -1.93916,-1.60936 -0.99158,-6.82851 2.57747,-14.19639 2.27567,-4.69785 3.30847,-5.86031 5.20661,-5.86031 3.16349,0 9.65406,-6.19218 9.62536,-9.18285 C 269.96553,681.54272 269.07554,679.375 268,678 c -1.08764,-1.39047 -1.9654,-4.07553 -1.97776,-6.05 -0.0122,-1.9525 -0.49988,-4.02764 -1.08367,-4.61143 -1.3454,-1.3454 -1.53422,-6.35796 -0.49304,-13.08857 0.78279,-5.06034 0.72817,-5.25 -1.51198,-5.25 -1.27826,0 -3.58624,-1.20919 -5.12883,-2.68709 C 255.4046,644.01345 255,642.84085 255,638.18442 l 0,-5.44139 -7.75,0.4534 c -4.2625,0.24937 -8.85893,1.04963 -10.21429,1.77835 -1.35535,0.72872 -5.61532,1.35815 -9.46659,1.39874 l -7.00231,0.0738 -3.91083,-6.92681 c -3.54239,-6.27424 -3.80462,-7.22054 -2.7834,-10.04465 2.30313,-6.36921 1.55061,-8.74811 -4.86838,-15.39011 -3.29769,-3.41225 -6.25093,-7.41496 -6.56275,-8.89491 -0.31182,-1.47995 -0.77325,-3.7072 -1.02541,-4.94945 -0.25216,-1.24225 0.23763,-3.60475 1.08842,-5.25 1.30423,-2.5221 2.14038,-2.99137 5.33009,-2.99137 2.08076,0 4.62799,-0.61774 5.66053,-1.37274 1.82985,-1.33803 1.82365,-1.50194 -0.24526,-6.4803 -2.31423,-5.56866 -1.82589,-6.69668 2.23136,-5.15411 1.45696,0.55393 5.00872,1.00715 7.89279,1.00715 3.06257,0 6.0512,0.61071 7.1849,1.4682 2.84062,2.14854 3.16981,1.93673 3.83609,-2.4682 0.33277,-2.2 0.86155,-5.6875 1.17507,-7.75 0.48377,-3.18256 0.0731,-4.3931 -2.714,-8 -2.36104,-3.05552 -4.01,-4.25 -5.86708,-4.25 -2.77376,0 -7.30215,-4.2009 -12.69366,-11.77568 -1.67381,-2.35162 -7.12041,-7.21218 -12.10354,-10.80125 -4.98314,-3.58906 -9.98683,-7.96501 -11.11932,-9.72432 l -2.05908,-3.19875 2.42079,-2 c 4.25708,-3.51709 6.93012,-11.86691 6.95387,-21.72194 0.017,-7.0411 -0.32132,-9.0646 -1.75542,-10.5 -0.97704,-0.97793 -3.22425,-4.25306 -4.99379,-7.27806 -2.37616,-4.062 -4.44824,-6.15364 -7.92518,-8 -2.58931,-1.375 -4.70913,-2.99679 -4.71073,-3.60398 -0.002,-0.60718 -1.18376,-2.37816 -2.62705,-3.9355 -2.45022,-2.64382 -2.79169,-2.73636 -5.15122,-1.39602 -4.63322,2.63191 -4.85379,4.19177 -1.38896,9.82283 1.74039,2.8285 3.16434,6.40176 3.16434,7.9406 0,1.82783 1.07246,3.81621 3.09325,5.73498 6.23808,5.92316 9.51039,15.75393 8.26598,24.83288 -0.54197,3.95413 -0.95568,4.60421 -2.93005,4.60421 -4.90955,0 -7.06947,2.0061 -14.92918,13.86597 -7.73416,11.67044 -8.1193,12.07261 -11.59029,12.1028 -3.53532,0.0308 -3.61065,-0.0537 -4.92102,-5.51591 -1.13023,-4.71133 -1.64399,-5.50237 -3.40971,-5.25 -2.2965,0.32823 -2.5928,2.89524 -1.20407,10.43163 l 0.76185,4.13449 -3.7723,0.89213 c -3.70735,0.87676 -3.81887,1.04334 -6.4775,9.67507 l -2.70521,8.78294 4.15913,3.02279 c 2.28751,1.66253 5.29103,3.69539 6.67449,4.51745 2.51062,1.49184 6.98463,7.44105 6.98463,9.28766 0,0.53629 -0.84416,1.7801 -1.87592,2.76402 -2.27436,2.1689 -3.71004,6.28894 -2.19147,6.28894 0.58707,0 1.06739,-0.45 1.06739,-1 0,-1.81505 2.45182,-0.98523 5.62545,1.90394 2.07656,1.89042 3.57278,4.59065 4.45836,8.04599 1.16535,4.54697 1.49071,4.98485 2.58848,3.48357 0.69057,-0.94442 1.42146,-2.21475 1.6242,-2.82296 0.24029,-0.72089 1.61868,-0.43263 3.95972,0.8281 2.66073,1.4329 3.75084,2.78541 4.20766,5.22046 0.33911,1.80759 1.283,3.65949 2.09754,4.11533 1.29248,0.72331 1.1919,2.5718 -0.79021,14.52244 -2.24273,13.522 -3.43221,16.01897 -5.46296,11.46789 -0.91853,-2.05848 -1.0564,-1.92069 -1.74363,1.74251 -0.69077,3.68215 -0.50078,4.18265 2.55681,6.73524 1.81667,1.51662 3.84298,2.75749 4.50291,2.75749 0.65993,0 1.50215,1.9125 1.8716,4.25 1.19984,7.5914 2.81475,11.84922 5.20828,13.73197 3.54522,2.78867 2.32557,8.28639 -3.11573,14.0445 -3.7985,4.01967 -4.70703,4.48337 -8.95494,4.57053 -5.41391,0.11109 -6.15984,0.65552 -7.11671,5.19427 -0.64724,3.07008 -0.53671,3.25535 1.64465,2.75674 1.51286,-0.34581 3.20247,0.19386 4.78549,1.52851 2.07099,1.74607 2.26305,2.35754 1.25,3.9797 -1.66478,2.66573 -1.51488,3.62587 0.9511,6.09185 1.75097,1.75097 1.93584,2.48793 1,3.98643 -1.94389,3.11266 -1.38791,5.7672 1.35193,6.45486 3.04861,0.76515 3.17104,2.04668 0.40916,4.28311 -1.94328,1.57358 -2.01385,2.10952 -1,7.59396 0.59996,3.24549 1.09084,7.67118 1.09084,9.83488 0,3.25632 0.68904,4.62302 4,7.93398 2.42798,2.42799 4,4.93628 4,6.38236 0,2.64249 -2.4404,3.28304 -3.36163,0.88235 -0.31658,-0.825 -1.03972,-1.5 -1.60699,-1.5 -0.64302,0 -1.03138,3.95366 -1.03138,10.5 0,6.33333 0.39683,10.5 1,10.5 2.03367,0 0.92152,2.87214 -1.23153,3.18045 -1.37829,0.19737 -3.57685,2.31309 -5.75,5.53337 -3.48781,5.16837 -5.46613,6.44321 -6.26758,4.03884 -0.25411,-0.76231 -0.89431,-0.3532 -1.6464,1.0521 -1.00375,1.87553 -0.92837,3.20941 0.40891,7.23557 0.90173,2.71488 2.03361,5.17971 2.51528,5.4774 0.48167,0.29769 2.74542,-1.48708 5.03055,-3.96616 3.43059,-3.72175 4.47874,-4.33402 6.01341,-3.51269 1.53647,0.82229 2.12904,0.4718 3.41868,-2.02209 1.90694,-3.68761 3.92257,-3.84094 6.13355,-0.46656 0.91903,1.40262 2.25171,2.32737 2.9615,2.055 0.70979,-0.27237 3.47888,1.24716 6.15353,3.37675 l 4.863,3.87198 3.09853,-1.96186 3.09854,-1.96185 1.9487,2.47737 c 1.56816,1.99359 3.00345,2.53741 7.35001,2.78487 5.00911,0.28518 5.3826,0.4789 5.14356,2.66787 -0.22636,2.07273 0.0553,2.28178 2.31133,1.71555 1.413,-0.35464 5.97103,-2.5418 10.12895,-4.86035 z"
       id="Cho"
       inkscape:label="Chocó" />
  </g>
</svg>
