<?xml version="1.0" encoding="UTF-8" standalone="no"?>
<!-- Created with Inkscape (http://www.inkscape.org/) -->

<svg
   xmlns:dc="http://purl.org/dc/elements/1.1/"
   xmlns:cc="http://creativecommons.org/ns#"
   xmlns:rdf="http://www.w3.org/1999/02/22-rdf-syntax-ns#"
   xmlns:svg="http://www.w3.org/2000/svg"
   xmlns="http://www.w3.org/2000/svg"
   xmlns:sodipodi="http://sodipodi.sourceforge.net/DTD/sodipodi-0.dtd"
   xmlns:inkscape="http://www.inkscape.org/namespaces/inkscape"
   version="1.0"
   width="986"
   height="1424"
   id="svg2"
   sodipodi:version="0.32"
   inkscape:version="0.48.4 r9939"
   sodipodi:docname="CO_Re_Cen.svg"
   inkscape:output_extension="org.inkscape.output.svg.inkscape">
  <metadata
     id="metadata76">
    <rdf:RDF>
      <cc:Work
         rdf:about="">
        <dc:format>image/svg+xml</dc:format>
        <dc:type
           rdf:resource="http://purl.org/dc/dcmitype/StillImage" />
        <dc:title></dc:title>
      </cc:Work>
    </rdf:RDF>
  </metadata>
  <sodipodi:namedview
     inkscape:window-height="776"
     inkscape:window-width="1271"
     inkscape:pageshadow="2"
     inkscape:pageopacity="0.0"
     guidetolerance="10.0"
     gridtolerance="10.0"
     objecttolerance="10.0"
     borderopacity="1.0"
     bordercolor="#666666"
     pagecolor="#ffffff"
     id="base"
     showgrid="false"
     inkscape:zoom="2.5955056"
     inkscape:cx="333.94983"
     inkscape:cy="829.63995"
     inkscape:window-x="-8"
     inkscape:window-y="0"
     inkscape:current-layer="svg2"
     showguides="false"
     inkscape:guide-bbox="true"
     inkscape:window-maximized="0"
     inkscape:object-paths="true"
     inkscape:snap-bbox="true"
     inkscape:snap-smooth-nodes="true"
     inkscape:snap-midpoints="false" />
  <defs
     id="defs5">
    <inkscape:perspective
       sodipodi:type="inkscape:persp3d"
       inkscape:vp_x="0 : 712 : 1"
       inkscape:vp_y="0 : 1000 : 0"
       inkscape:vp_z="986 : 712 : 1"
       inkscape:persp3d-origin="493 : 474.66667 : 1"
       id="perspective78" />
  </defs>
  <path
     inkscape:connector-curvature="0"
     id="Cas"
     d="m 460.0173,574.81734 c 2.26953,-1.73105 3.64061,-2.17468 4.68328,-1.51531 3.35914,2.12428 7.72324,1.00267 13.76243,-3.53706 5.57139,-4.18809 6.40942,-4.5 12.09061,-4.5 5.02128,0 6.32588,0.35483 7.3533,2 2.6249,4.20313 7.16552,1.99324 22.90143,-11.14594 4.54939,-3.79866 15.31391,-8.85406 18.85302,-8.85406 3.07778,0 23.80848,-10.69064 29.51348,-15.21983 2.76504,-2.19516 6.91626,-7.02548 9.287,-10.80626 3.54066,-5.64651 5.03888,-7.1239 8.60576,-8.4861 4.34124,-1.65794 9.03635,-6.42574 13.41789,-13.62564 4.48453,-7.36915 14.72713,-13.54672 31.99665,-19.298 5.73258,-1.90912 9.75697,-4.01486 12.99807,-6.80118 5.60468,-4.81823 5.77569,-5.08746 6.66698,-10.49558 0.49795,-3.02142 1.60326,-4.98838 3.86261,-6.87375 3.45594,-2.88389 5.57428,-6.04616 5.6296,-8.40388 0.0599,-2.5543 -4.82031,-6.98978 -7.69067,-6.98978 -1.60813,0 -4.43464,-1.50494 -7.20953,-3.83862 -6.74396,-5.67165 -8.12911,-6.16138 -17.42695,-6.16138 -7.88694,0 -8.91019,0.24611 -14.31574,3.44316 l -5.82167,3.44316 -6.5,-1.46636 c -3.575,-0.80649 -8.10248,-2.16092 -10.06106,-3.00983 -5.21545,-2.26055 -34.79881,-1.43571 -48.37887,1.34889 -8.89269,1.82345 -10.17885,1.88164 -12.2076,0.55236 -2.08698,-1.36744 -2.91982,-1.20387 -10.45313,2.0531 -7.64304,3.3044 -8.37154,3.4427 -10.99334,2.08691 -2.63402,-1.3621 -3.35268,-1.21167 -11.60694,2.42964 -8.16897,3.60369 -8.99629,3.78073 -11.55333,2.47242 -1.51484,-0.77507 -3.91479,-3.1629 -5.33321,-5.30628 -2.77357,-4.19115 -4.54142,-5.31867 -6.91252,-4.4088 -1.87532,0.71963 -1.87532,4.0811 0,7.36163 0.80739,1.41238 1.44455,5.23372 1.46456,8.78373 0.0348,6.17626 -0.0265,6.32029 -3.58881,8.42208 l -3.62425,2.13836 5.62425,2.84395 c 3.09334,1.56417 5.62425,3.24858 5.62425,3.74315 0,0.49456 1.31146,2.137 2.91435,3.64987 2.76618,2.61084 2.83483,2.87203 1.35029,5.13773 -0.86023,1.31288 -2.07518,4.95072 -2.69988,8.08409 -1.00218,5.02672 -1.43965,5.73277 -3.71811,6.00071 -1.98221,0.2331 -3.04712,-0.43048 -4.58255,-2.85553 l -2.00025,-3.15919 -3.38193,4.22007 c -1.86005,2.32103 -6.08192,6.4697 -9.38192,9.21926 -3.3,2.74955 -6.60441,6.12557 -7.34314,7.50226 l -1.34313,2.50306 -4.20291,-4.12484 -4.2029,-4.12484 -3.32384,3.42934 c -3.40512,3.51319 -5.80677,11.1877 -4.06276,12.98263 1.22746,1.26332 -2.34506,7.85729 -5.85884,10.81394 -2.63163,2.21437 -2.99635,3.26503 -3.63402,10.46863 -0.70201,7.93058 -0.67683,8.05419 2.63137,12.91438 1.83709,2.69894 3.62794,5.13216 3.97965,5.40716 0.35172,0.275 1.17746,2.30238 1.83498,4.5053 0.9127,3.05786 2.32845,4.755 5.98509,7.17469 3.78778,2.50646 4.92991,3.91723 5.46034,6.7447 l 0.67074,3.57531 5.5214,0 c 4.31729,0 6.22124,-0.53378 8.73042,-2.44763 z"
     style="fill:#ff6666;fill-opacity:1"
     inkscape:label="Casanare" />
  <path
     inkscape:connector-curvature="0"
     id="Cun"
     d="m 321.67485,603.88514 c 0,-8.10499 2.18571,-11.62017 7.22534,-11.62017 3.96275,0 5.76794,-4.58324 5.7969,-14.71788 0.0177,-6.18127 0.4245,-8.29639 1.97776,-10.28212 2.95808,-3.78169 2.55163,-8.30214 -1.12276,-12.48704 l -3.12277,-3.55663 3.93814,-1.68182 c 3.03068,-1.29429 4.63301,-2.95985 6.95372,-7.22817 4.04596,-7.44145 6.76272,-7.63155 9.40967,-0.65841 1.6809,4.42816 1.72951,5.48859 0.51682,11.27383 -0.73623,3.51225 -2.46392,8.0864 -3.83932,10.16476 -1.3754,2.07837 -2.79295,6.00515 -3.15012,8.72617 -1.58795,12.09762 -1.73857,15.69212 -0.70103,16.72966 0.77231,0.77231 0.35925,2.02319 -1.45245,4.39844 -2.40838,3.15755 -2.43349,3.31921 -0.51559,3.31921 1.10885,0 3.49426,-1.27935 5.30089,-2.843 1.80664,-1.56366 5.34025,-3.34948 7.85246,-3.96849 2.51221,-0.61901 6.67105,-2.30109 9.24186,-3.73794 4.13965,-2.3137 4.55077,-2.84311 3.59486,-4.62924 -0.59364,-1.10922 -1.89776,-4.39554 -2.89804,-7.30292 l -1.81871,-5.28614 4.15619,-4.02381 c 2.2859,-2.2131 5.05618,-4.20491 6.15618,-4.42624 1.1,-0.22134 3.87188,0.85579 6.15973,2.39361 3.37954,2.27162 4.28846,3.55802 4.84611,6.85876 0.41058,2.43015 1.71734,5.01867 3.25195,6.44164 l 2.56556,2.37892 3.13474,-2.39098 c 3.00531,-2.29226 3.32895,-2.33253 7.83886,-0.97524 2.58727,0.77865 6.76051,2.83056 9.27387,4.55979 2.51335,1.72924 4.70942,2.98819 4.88015,2.79767 0.17073,-0.19051 1.27727,-6.64639 2.45896,-14.34639 1.1817,-7.7 2.39413,-15.11278 2.69429,-16.47285 0.52409,-2.3747 0.47019,-2.40446 -1.35798,-0.75 -2.88655,2.6123 -7.68661,2.2259 -9.65428,-0.77715 -0.98566,-1.5043 -2.58333,-2.5 -4.01142,-2.5 -2.46368,0 -7.81429,-5.22417 -9.78857,-9.55724 -0.73361,-1.6101 -2.22832,-2.50963 -4.928,-2.96574 -2.21355,-0.37398 -4.49192,-1.53545 -5.31384,-2.70891 -1.28831,-1.83932 -1.17209,-2.58063 1.11093,-7.08594 l 2.54976,-5.03172 -1.81381,-5.99062 c -1.22568,-4.04811 -2.88114,-6.96186 -5.10541,-8.9859 -2.53382,-2.30572 -3.29883,-3.82161 -3.32302,-6.58461 -0.0374,-4.26902 -3.44093,-7.3297 -7.64928,-6.87869 -2.2846,0.24484 -2.84694,-0.21074 -3.65436,-2.96063 -0.6068,-2.06664 -1.59209,-3.25 -2.70601,-3.25 -1.71554,0 -7.95893,6.22587 -7.95893,7.93659 0,0.47686 -1.4401,1.77881 -3.20022,2.89324 -3.50556,2.21957 -4.86767,1.89525 -10.01508,-2.38464 -1.49341,-1.24172 -4.54298,-2.56645 -6.77683,-2.94386 -3.42318,-0.57834 -4.37342,-1.29755 -6.04595,-4.57598 -1.14794,-2.25015 -2.24934,-7.02373 -2.6129,-11.32463 -0.84565,-10.00411 -1.28738,-10.55418 -6.02176,-7.49875 -3.20873,2.07081 -4.3929,2.32783 -7.32726,1.59035 -2.22763,-0.55986 -4.49972,-0.49106 -6.25,0.18927 -2.32436,0.90346 -2.75058,1.65316 -2.75374,4.84366 -0.002,2.07611 -0.90205,5.24813 -2,7.04892 -1.20814,1.98154 -1.99626,5.03706 -1.99626,7.73948 0,2.46397 -1.15238,7.34389 -2.57114,10.88791 -2.36448,5.90634 -2.4534,6.65072 -1.10625,9.26052 1.15939,2.24606 1.28975,4.50634 0.62506,10.83792 -0.46191,4.4 -0.8641,11.20909 -0.89375,15.13131 -0.0522,6.90888 -0.15993,7.21217 -3.45268,9.72367 -2.97414,2.26849 -3.48447,3.33093 -4.08489,8.50418 -0.51312,4.42101 -0.30124,6.65614 0.8402,8.86344 1.46486,2.83272 1.3877,3.18178 -1.9151,8.66459 -1.8928,3.14214 -3.44145,6.14043 -3.44145,6.66289 0,0.52246 1.42002,0.94992 3.15561,0.94992 1.82527,0 4.5374,1.05395 6.43328,2.5 4.22603,3.22335 5.60204,3.14927 9.78912,-0.52704 l 3.4476,-3.02703 2.74552,2.3616 c 2.60236,2.23845 2.73993,2.79236 2.63825,10.6226 -0.059,4.54355 -0.62363,10.74834 -1.25475,13.7884 -0.98718,4.75524 -0.9037,6.06801 0.59758,9.39725 l 1.74506,3.86985 2.35136,-3.18709 c 1.94036,-2.63001 2.35137,-4.40915 2.35137,-10.17837 z"
     style="fill:#ff6666;fill-opacity:1"
     inkscape:label="Cundinamarca" />
  <path
     inkscape:connector-curvature="0"
     id="Tol"
     d="m 233.67485,659.18989 c 0,-3.36081 0.48611,-4.22213 3.47981,-6.16573 1.9139,-1.24255 4.1151,-3.83419 4.89155,-5.75919 l 1.41174,-3.5 6.35845,0.3093 c 3.49715,0.17012 8.38345,0.43247 10.85845,0.58301 2.91139,0.17708 5.50082,-0.33484 7.33498,-1.45009 5.6257,-3.42067 11.41992,1.35617 7.2432,5.9714 -2.19052,2.42049 -1.07687,3.10486 4.83849,2.97344 4.86309,-0.10804 5.31424,-0.36441 10.41281,-5.91722 4.82942,-5.25967 5.21632,-6.01574 4.12339,-8.0579 -0.99904,-1.86672 -0.92685,-2.4578 0.42052,-3.44302 0.89463,-0.65417 1.62661,-2.13886 1.62661,-3.2993 0,-1.4135 1.31772,-2.8624 3.9923,-4.38976 2.19576,-1.25392 3.99576,-3.03066 4,-3.9483 0.004,-0.91764 1.53155,-2.61023 3.39402,-3.7613 3.58663,-2.21666 4.87697,-4.8484 3.54453,-7.22934 -0.4442,-0.79373 -0.42826,-3.22015 0.0354,-5.39204 0.46367,-2.17188 1.14778,-8.26741 1.52022,-13.54562 0.58103,-8.23417 0.43935,-9.83456 -0.99785,-11.27176 -1.56671,-1.56671 -1.8976,-1.47962 -5.11663,1.34673 -4.16559,3.65744 -5.72812,3.75027 -9.87579,0.58669 -1.9871,-1.51564 -4.85136,-2.55399 -7.58576,-2.75 -5.8197,-0.41717 -6.0756,-2.25139 -1.40743,-10.08789 3.38669,-5.68525 3.56381,-6.35856 2.28721,-8.69475 -0.92695,-1.69631 -1.25692,-4.77651 -0.99954,-9.33042 0.3612,-6.39086 0.57928,-6.926 3.64019,-8.93248 l 3.25598,-2.13434 1.25319,-15.18033 c 1.10792,-13.42063 1.07238,-15.52997 -0.30657,-18.19658 -1.46441,-2.83184 -2.02254,-3.05961 -9.12921,-3.72556 l -7.56944,-0.70932 -6.2132,5.08838 c -5.7361,4.69765 -6.62056,5.08837 -11.51843,5.08837 -5.04646,0 -5.37187,0.15945 -6.67106,3.26886 -0.80246,1.92057 -1.28176,6.14834 -1.16202,10.25 0.1731,5.92957 -0.216,7.78725 -2.58315,12.33269 -1.78891,3.43507 -2.78696,6.89316 -2.78696,9.65636 0,4.04588 -0.42106,4.69466 -7,10.78575 -6.41251,5.937 -7,6.81554 -7,10.46791 0,5.32279 -2.30854,11.57758 -5.98751,16.22266 -1.65687,2.09197 -3.01249,4.36209 -3.01249,5.04472 0,0.68263 -3.01938,5.29635 -6.70973,10.25272 -8.23828,11.06454 -14.29027,24.13734 -14.29027,30.86817 0,2.6108 -1.10646,8.25765 -2.45879,12.54854 -2.62571,8.33124 -5.5021,19.89143 -5.52643,22.21066 -0.008,0.77497 2.0502,3.30489 4.57406,5.62204 l 4.58883,4.21301 13.41117,-7.45632 13.41116,-7.45631 0,-3.90654 z"
     style="fill:#ff6666;fill-opacity:1"
     inkscape:label="Tolima" />
  <path
     inkscape:connector-curvature="0"
     id="Vid"
     d="m 603.09306,689.65798 c 0.86999,-0.33384 1.58179,-1.21947 1.58179,-1.96806 0,-0.74859 1.23064,-2.00587 2.73475,-2.79395 2.4535,-1.28553 3.0028,-1.24201 5.34131,0.42316 2.26645,1.61385 3.1166,1.70188 6.51526,0.67458 2.14977,-0.6498 4.72884,-2.2046 5.73126,-3.4551 1.15932,-1.44623 2.9044,-2.27364 4.79531,-2.27364 2.8874,0 2.95354,-0.10764 2.30387,-3.75 -0.36787,-2.0625 -1.49142,-4.65575 -2.49677,-5.76278 -1.77398,-1.9534 -1.76545,-2.11143 0.28921,-5.35655 1.98161,-3.12974 8.90765,-7.13067 12.34395,-7.13067 1.08502,0 1.1749,-0.57192 0.40724,-2.59104 -0.83844,-2.20526 -0.68587,-2.6693 1.02475,-3.11663 2.59315,-0.67813 2.53363,-1.09249 -0.49967,-3.47848 -3.07425,-2.41821 -2.4138,-3.80885 1.81855,-3.82916 1.75504,-0.008 3.85089,-0.43268 4.65744,-0.9428 0.90757,-0.574 1.90508,-0.56347 2.61732,0.0276 0.761,0.63158 1.57604,0.44282 2.40599,-0.5572 0.69031,-0.83174 1.87502,-1.51229 2.63267,-1.51229 0.75766,0 1.37756,-0.80631 1.37756,-1.79179 0,-0.98549 1.9125,-3.63507 4.25,-5.88797 3.30452,-3.18491 5.29825,-4.24469 8.96192,-4.76377 2.79369,-0.39582 5.53225,-0.22857 6.72697,0.41082 3.05345,1.63416 5.89958,-0.60518 6.26331,-4.92798 0.28406,-3.37602 0.50541,-3.56805 4.7978,-4.16226 2.475,-0.34262 5.25792,-0.23012 6.18426,0.25 2.97252,1.54065 8.89214,0.95474 11.88498,-1.17636 2.24559,-1.59899 3.30881,-1.81873 4.83863,-1 1.07836,0.57712 2.93326,1.04931 4.12202,1.04931 1.18875,0 3.45075,0.91812 5.02665,2.04026 2.85141,2.03038 2.88376,2.03084 6.67803,0.0951 3.36144,-1.71487 4.18627,-1.78805 6.96844,-0.61824 3.05956,1.28645 3.18674,1.23785 4.17433,-1.59515 0.62518,-1.79341 1.72526,-2.92202 2.84813,-2.92202 1.00624,0 2.88461,-0.73902 4.17417,-1.64226 1.39887,-0.97981 5.21987,-1.8468 9.47251,-2.14934 8.49093,-0.60404 12.34637,-2.70586 18.54574,-10.11033 3.85101,-4.5996 4.66709,-5.09807 8.34649,-5.09807 2.27142,0 4.83316,-0.68329 5.78238,-1.54232 1.55455,-1.40684 1.92148,-1.28413 4.17752,1.39701 l 2.47328,2.93933 2.91295,-1.84435 c 2.90062,-1.83654 2.93265,-1.83208 7.56901,1.05366 l 4.65606,2.89801 6.56343,-4.70067 c 3.60989,-2.58537 6.57188,-4.97537 6.58221,-5.31112 0.0103,-0.33575 -1.16282,-2.35164 -2.607,-4.47975 -2.40236,-3.54008 -2.57624,-4.46007 -2.04367,-10.81262 l 0.58211,-6.94333 -4.47432,-6.40056 -4.47431,-6.40057 1.47826,-8.67636 c 0.81305,-4.772 1.52263,-11.37636 1.57685,-14.67636 0.0542,-3.3 0.18459,-11.175 0.28972,-17.5 0.10513,-6.325 -0.13267,-13.075 -0.52843,-15 l -0.71957,-3.5 8.96957,-5.36001 c 8.6859,-5.19049 8.9688,-5.47512 8.94512,-9 -0.0134,-2.00199 -0.46701,-5.55829 -1.00793,-7.90289 -0.75533,-3.27395 -0.59413,-5.81294 0.69487,-10.94449 1.47514,-5.87255 2.43647,-7.46625 7.93921,-13.16167 l 6.26084,-6.48006 -1.93127,-3.7856 c -1.0622,-2.08203 -1.93127,-4.71009 -1.93127,-5.84008 0,-1.12998 -1.4625,-3.62944 -3.25,-5.55435 -3.14046,-3.38186 -3.55937,-3.52106 -12.42914,-4.13002 l -9.17914,-0.63021 -5.10552,3.66795 -5.10551,3.66795 -6.3146,-1.09964 c -5.38098,-0.93705 -6.89134,-0.84947 -10.21535,0.59236 -2.42331,1.05114 -7.30955,1.81463 -12.90074,2.01578 -4.95,0.17807 -12.46552,1.22702 -16.70114,2.331 l -7.70115,2.00722 -8.57387,-2.35891 c -4.71563,-1.2974 -12.28045,-2.66767 -16.8107,-3.04503 l -8.23683,-0.68613 -5.29477,5.59844 c -2.91212,3.07914 -5.57779,5.59844 -5.9237,5.59844 -0.34592,0 -1.55794,-0.85505 -2.69339,-1.90011 -2.03847,-1.87619 -2.17143,-1.84991 -10.56445,2.08822 l -8.5,3.98832 -10.19735,-0.65157 -10.19736,-0.65157 -1.94978,3.81335 c -1.07238,2.09735 -3.2877,5.00232 -4.92293,6.45549 -2.14124,1.90285 -3.16626,3.92992 -3.66332,7.24457 -0.98834,6.59071 -8.58083,13.06417 -19.74255,16.83275 -11.3582,3.83492 -23.7498,10.10976 -27.61613,13.98422 -1.80918,1.81298 -5.40918,6.22133 -8,9.79633 -3.52058,4.85796 -5.97369,7.10718 -9.71058,8.90351 -4.1659,2.00256 -5.8758,3.7448 -10.25,10.44388 l -5.25,8.04037 0,74.80612 c 0,73.47279 0.0357,74.84177 2,76.80612 2.26816,2.26816 2.89021,2.37244 6.33625,1.06226 1.95242,-0.74231 2.83193,-0.5339 4.22009,1 0.9645,1.06576 2.92139,1.94463 4.34865,1.95305 1.42725,0.008 3.27001,0.45153 4.09501,0.98469 1.69863,1.09774 6.05208,1.30098 8.41821,0.39301 z"
     style="fill:#ff6666;fill-opacity:1"
     inkscape:label="Vichada" />
  <path
     inkscape:connector-curvature="0"
     id="Met"
     d="m 363.90202,776.93617 c 4.1511,-1.54111 7.66172,-2.1867 10.37904,-1.90868 l 4.10621,0.42013 0.72248,-27.34133 c 0.39737,-15.03772 1.02458,-27.63026 1.39379,-27.98341 1.04816,-1.00255 14.18753,1.09912 17.46385,2.79337 2.82711,1.46195 3.1386,1.38818 8.07401,-1.9124 4.43272,-2.9644 5.76323,-3.37338 9.74716,-2.9961 6.60731,0.62572 12.63886,-2.53407 13.072,-6.84813 0.28742,-2.86271 0.86991,-3.33287 6.81429,-5.50015 3.575,-1.30342 7.09101,-2.15359 7.81335,-1.88926 0.72234,0.26434 2.61249,-0.19121 4.20034,-1.01232 1.58784,-0.8211 5.20707,-1.49292 8.04273,-1.49292 4.28462,0 5.48235,-0.41522 7.08882,-2.45752 1.0632,-1.35163 5.58443,-4.28507 10.04718,-6.51875 7.77361,-3.89082 8.80748,-4.06464 13.55758,-2.27951 0.7504,0.282 1.25,-0.36316 1.25,-1.61418 0,-1.14616 1.08698,-2.79615 2.41552,-3.66664 2.2657,-1.48455 2.74294,-1.41679 7.69477,1.09249 5.01676,2.54218 5.55395,2.61372 10.80414,1.43878 3.03869,-0.68003 6.59386,-1.93683 7.90038,-2.7929 1.79765,-1.17786 5.01108,-1.54204 13.21027,-1.49712 9.39549,0.0515 11.23221,0.34237 13.82665,2.18977 l 2.99187,2.1304 3.78027,-2.23041 c 3.03653,-1.79159 5.02072,-2.1747 10.08524,-1.94726 11.56268,0.51927 10.29089,9.7859 10.29089,-74.98263 l 0,-74.00071 -2.75,1.94555 c -4.73604,3.35061 -27.11731,14.19064 -29.29924,14.19064 -3.79725,0 -12.37684,4.3077 -17.95076,9.01285 -15.34661,12.95462 -19.82471,15.0483 -23.5,10.98715 -1.39224,-1.53841 -3.07997,-2 -7.31262,-2 -4.84569,0 -6.11061,0.4622 -10.59501,3.87139 -5.13246,3.90187 -11.89541,5.79543 -14.64014,4.09909 -0.81142,-0.50149 -2.52233,0.12531 -4.53742,1.66229 -2.78562,2.1247 -4.11057,2.42567 -9.54104,2.16728 l -6.30621,-0.30005 -0.90393,-3.83798 c -0.69414,-2.94727 -2.0202,-4.63995 -5.7139,-7.2936 -3.01813,-2.16831 -5.03475,-4.46383 -5.41336,-6.16202 -0.63888,-2.86563 -6.39642,-12.67968 -7.05332,-12.02279 -0.21274,0.21275 -1.57913,8.02097 -3.03643,17.3516 -1.45729,9.33063 -2.94145,17.27935 -3.29812,17.66382 -0.35668,0.38447 -3.71347,-1.27331 -7.45955,-3.68395 -9.08483,-5.84619 -11.71513,-6.35963 -15.96675,-3.11677 l -3.33595,2.54446 -3.60529,-2.97179 c -2.62245,-2.16165 -3.78871,-4.05739 -4.27809,-6.95398 -0.68264,-4.04052 -5.12256,-9.017 -8.0448,-9.017 -0.76366,0 -2.99128,1.40728 -4.95026,3.12729 -3.92577,3.44687 -3.92558,3.26443 -0.0136,13.13581 l 2.28389,5.76311 -6.13905,3.41164 c -3.37648,1.87641 -7.87917,3.73046 -10.00599,4.12013 -2.12682,0.38966 -5.33623,1.99853 -7.13202,3.57525 -2.19713,1.92911 -4.36667,2.87178 -6.63306,2.88208 -1.85239,0.008 -3.82961,0.34592 -4.39382,0.75 -2.21519,1.58648 -7.30152,8.97497 -9.27156,13.46803 -3.33933,7.61597 -6.98016,11.76666 -10.32129,11.76666 -2.44081,0 -2.88131,0.39994 -2.88131,2.61602 0,1.43882 -1.5146,4.70132 -3.36579,7.25 -4.28551,5.90025 -5.99737,11.21967 -5.37826,16.7124 0.45731,4.05722 0.14917,4.7528 -4.70963,10.63142 -2.85942,3.45959 -7.32002,8.02247 -9.91244,10.13973 -3.78749,3.09329 -4.48516,4.1247 -3.55124,5.25 0.63924,0.77024 2.19939,1.40043 3.467,1.40043 1.39396,0 3.42027,1.33436 5.12756,3.37659 1.55254,1.85712 4.68346,4.31482 6.9576,5.46155 3.66544,1.84829 4.24192,2.62851 5.07854,6.87341 0.916,4.64766 0.83992,4.8987 -2.58738,8.53808 -3.13596,3.33 -3.57683,4.46739 -3.93952,10.16335 -0.31713,4.98044 0.16449,8.16499 2.15517,14.25037 2.33073,7.12488 3.70171,13.34113 5.17731,23.4749 0.29138,2.00103 1.53132,5.12111 2.75543,6.93351 2.04561,3.02871 3.03458,3.46344 12.22565,5.37421 9.45011,1.96462 15.71353,4.69654 18.51969,8.07775 0.68449,0.82476 3.09758,2.32119 5.36242,3.32541 2.26484,1.00421 4.73549,2.57397 5.49033,3.48835 1.68606,2.04242 0.88696,2.10615 8.35473,-0.66628 z"
     style="fill:#ff6666;fill-opacity:1"
     inkscape:label="Meta" />
  <path
     inkscape:connector-curvature="0"
     id="Hui"
     d="m 213.17485,771.58482 c 5.5,-6.94056 12.7,-14.87433 16,-17.6306 4.20693,-3.51376 7.14321,-7.11532 9.82544,-12.05161 2.10399,-3.87213 6.15399,-9.72446 9,-13.0052 2.84601,-3.28074 6.33396,-8.68608 7.751,-12.01187 2.52005,-5.91455 2.7008,-6.08382 8.25874,-7.73375 7.24377,-2.15038 9.82054,-5.01477 9.34389,-10.38682 -0.32057,-3.61293 0.11323,-4.50223 4.48301,-9.19014 3.50898,-3.76444 4.83792,-5.99739 4.83792,-8.12887 0,-2.35872 1.43091,-4.27526 7.25,-9.71052 3.9875,-3.72448 9.19204,-9.06648 11.56565,-11.87112 3.92436,-4.637 4.27495,-5.48962 3.86672,-9.40367 -0.51536,-4.94116 2.04027,-12.65441 5.84595,-17.64392 1.91833,-2.51507 2.41847,-4.3157 2.32695,-8.37769 -0.0641,-2.84574 -0.32581,-5.17407 -0.58155,-5.17407 -1.32982,0 -6.27372,4.32357 -6.27372,5.48653 0,0.7427 -1.575,2.32375 -3.5,3.51347 -2.67966,1.65612 -3.5,2.83332 -3.5,5.02254 0,1.57269 -0.47153,3.15085 -1.04785,3.50703 -0.57632,0.35619 -0.91735,1.41792 -0.75785,2.35941 0.16467,0.97201 -2.49572,4.82321 -6.15598,8.91141 l -6.44597,7.19961 -5.73947,0 c -4.77472,0 -5.99774,-0.36873 -7.27594,-2.19362 -1.35747,-1.93806 -1.36408,-2.38411 -0.0567,-3.82874 1.95424,-2.1594 1.88864,-4.97764 -0.11586,-4.97764 -0.8776,0 -2.7901,0.82054 -4.25,1.82342 -1.82998,1.25711 -3.89668,1.69853 -6.65437,1.4213 -2.2,-0.22117 -6.81399,-0.55162 -10.25331,-0.73433 -5.86856,-0.31177 -6.28985,-0.18662 -6.84723,2.03417 -0.32666,1.30151 -2.09946,3.51471 -3.93955,4.91822 -2.70393,2.06238 -3.40454,3.35195 -3.65277,6.72336 l -0.30714,4.17153 -13.78244,7.51543 c -10.65401,5.80952 -13.63253,7.86856 -13.12201,9.07116 0.36325,0.85566 0.99023,4.70574 1.3933,8.55574 0.40306,3.85 2.10977,10.62764 3.79267,15.06142 l 3.05981,8.06141 -2.01886,3.18859 c -1.11039,1.75372 -2.22204,3.18858 -2.47034,3.18858 -1.14558,0 -6.13205,-3.02988 -7.29742,-4.43406 -1.8774,-2.26213 -2.50208,-1.99943 -5.30031,2.22898 -3.11375,4.7052 -8.12925,6.61248 -12.02329,4.57219 -2.44296,-1.28 -2.68952,-1.17049 -4.70425,2.08942 -1.1694,1.89211 -2.98803,3.71376 -4.04141,4.04809 -1.66307,0.52783 -1.88695,1.47698 -1.70035,7.20853 0.2108,6.47511 0.16079,6.61553 -2.62957,7.38253 -1.94156,0.53369 -3.91704,0.27039 -6.22351,-0.82948 -4.82468,-2.30073 -8.43638,-0.60131 -8.42102,3.96236 0.0276,8.21092 1.04239,10.61269 5.61654,13.29332 4.69842,2.75346 4.4743,2.0753 4.78482,14.47812 0.0863,3.44684 0.1591,3.5046 4.79332,3.80298 3.77829,0.24327 5.19437,0.88375 7.18531,3.24985 2.11551,2.51414 2.84485,2.808 4.96685,2.00122 1.84863,-0.70285 2.79531,-0.57443 3.68713,0.50015 0.7685,0.92598 3.04345,1.43484 6.32746,1.41533 l 5.12756,-0.0305 10,-12.61921 z"
     style="fill:#ff6666;fill-opacity:1"
     inkscape:label="Huila" />
  <path
     inkscape:connector-curvature="0"
     id="Gua"
     d="m 886.92485,810.61357 c 2.60595,-0.7198 2.50767,-11.35294 -0.12696,-13.73725 -1.11156,-1.00595 -2.15192,-3.77144 -2.55125,-6.78173 -0.37087,-2.79571 -2.22624,-8.16484 -4.12305,-11.9314 -1.89681,-3.76656 -3.44874,-7.43472 -3.44874,-8.15147 0,-0.71674 -1.575,-4.58965 -3.5,-8.60645 -2.72056,-5.67685 -3.50237,-8.56563 -3.51065,-12.97179 -0.01,-5.18512 -0.31697,-5.9662 -3.60276,-9.15943 -3.48276,-3.38465 -3.57835,-3.67387 -3.13987,-9.5 l 0.45225,-6.00908 -9.9082,-11.25 c -9.47173,-10.75444 -10.0818,-11.25 -13.84948,-11.25 -3.55071,0 -3.94129,-0.25093 -3.94129,-2.53212 0,-1.39266 -0.62505,-4.02806 -1.38899,-5.85644 -1.24185,-2.97216 -1.92225,-3.39507 -6.42267,-3.99207 -2.76852,-0.36725 -6.86847,-0.37434 -9.11101,-0.0158 -3.13643,0.50154 -4.05175,0.33405 -3.96649,-0.72581 0.061,-0.7578 8.81743,-9.70281 19.45882,-19.87781 10.64139,-10.175 19.64765,-19.54179 20.0139,-20.81508 0.49691,-1.72751 -0.0233,-3.0345 -2.0498,-5.14969 -3.57117,-3.72749 -7.14826,-11.58734 -8.5758,-18.84338 l -1.14906,-5.84055 -5.15769,0.42772 -5.1577,0.42771 -3.86312,-11.09046 c -2.54658,-7.31086 -4.24946,-10.85611 -4.99676,-10.4028 -0.6235,0.37821 -3.74049,2.60022 -6.92666,4.93779 l -5.79302,4.25012 -4.63243,-2.9378 -4.63243,-2.9378 -3.06702,1.9419 -3.06702,1.94189 -2.76412,-2.64819 c -2.14138,-2.05158 -3.03298,-2.37933 -3.95752,-1.45479 -0.65638,0.65638 -2.89414,1.19341 -4.97281,1.19341 -3.22138,0 -4.40996,0.68834 -8.05,4.66195 -6.76082,7.38038 -12.13017,10.34124 -18.71638,10.32091 -7.14417,-0.022 -14.52567,3.34528 -15.95471,7.2783 l -1.00325,2.76116 -3.95118,-1.58095 c -3.70851,-1.48385 -4.18743,-1.46101 -7.79813,0.37192 -3.59558,1.82525 -4.00649,1.84615 -6.28862,0.31978 -1.34291,-0.89819 -4.48415,-2.15235 -6.98052,-2.78701 -4.03976,-1.02706 -4.84793,-0.93387 -7.34952,0.84741 -2.87952,2.0504 -3.30822,2.05686 -15.47829,0.23328 -4.20569,-0.63018 -4.25,-0.60521 -4.25,2.39574 0,4.17028 -5.23665,8.41823 -8.73699,7.08741 -1.31626,-0.5004 -4.14826,-0.90985 -6.29331,-0.90985 -4.79051,0 -10.9697,4.83881 -10.9697,8.59017 0,1.7618 -0.88055,2.75091 -3.37792,3.79438 -1.85786,0.77626 -3.69792,1.92915 -4.08903,2.56197 -0.52544,0.85018 -1.06281,0.85871 -2.05816,0.0326 -1.85643,-1.5407 -6.22888,0.66685 -4.58225,2.31348 1.5524,1.5524 1.37896,4.45599 -0.32306,5.40848 -0.78673,0.44028 -1.34923,1.64638 -1.25,2.68023 0.13814,1.43919 -1.10727,2.32306 -5.31398,3.77137 -7.27751,2.50553 -9.79197,4.97455 -8.21102,8.0626 1.50518,2.94003 3.22987,10.9361 2.58418,11.98085 -0.27324,0.44211 -1.80203,0.80383 -3.39731,0.80383 -1.74911,0 -3.80975,0.94639 -5.19098,2.38408 -1.25976,1.31124 -3.96749,2.91768 -6.01718,3.56986 -2.04969,0.65219 -3.62469,1.66418 -3.5,2.24888 0.12469,0.5847 -4.86871,4.32118 -11.09646,8.3033 -6.22774,3.98212 -11.85274,7.83808 -12.5,8.56882 -0.9669,1.0916 -0.88414,1.10855 0.46395,0.095 1.39395,-1.048 2.09101,-0.66465 4.63352,2.54823 1.646,2.07999 4.63631,6.77358 6.64513,10.43019 3.98001,7.24471 4.51918,7.51426 16.58057,8.28892 2.475,0.15897 5.31775,0.63535 6.31722,1.05864 1.02756,0.43519 2.28195,0.30488 2.88669,-0.29986 0.63511,-0.63511 3.02069,-0.83839 5.87356,-0.50051 3.2561,0.38564 6.10431,0.0487 8.83929,-1.0456 l 4.0352,-1.61457 2.47044,3.63558 c 2.28175,3.3579 2.36035,3.84844 1.02914,6.42273 -0.79272,1.53294 -2.83402,3.60146 -4.53624,4.59672 -2.76628,1.6174 -3.04328,2.20125 -2.60851,5.49814 0.36633,2.77796 0.0182,4.11233 -1.41018,5.40499 -2.89411,2.61913 -2.27582,5.48736 2.18936,10.15643 2.84039,2.97009 4.88675,4.25 6.79505,4.25 1.50185,0 5.55699,0.95447 9.01142,2.12105 5.11204,1.72637 6.74918,1.90764 8.79795,0.97416 1.38444,-0.6308 3.96182,-0.87588 5.72752,-0.54463 2.2705,0.42595 3.59337,0.14076 4.51867,-0.97416 1.63615,-1.97144 6.29609,-2.01265 12.61306,-0.11152 3.79463,1.14202 14.79538,1.6149 49.90893,2.14542 l 45.04143,0.68052 -1.90499,-2.14542 c -1.04774,-1.17991 -2.96024,-2.14535 -4.25,-2.14535 -1.28975,0 -2.34687,-0.3375 -2.34914,-0.75 -0.002,-0.4125 1.46023,-4.03667 3.25,-8.05371 l 3.25413,-7.3037 3.5,0.64289 c 1.925,0.35359 3.51872,0.71526 3.54159,0.8037 0.63773,2.4656 6.79001,9.56857 11.28129,13.02453 6.13858,4.72353 7.77624,5.04533 6.01605,1.18214 -0.84371,-1.85175 -0.51905,-2.97733 1.8169,-6.29917 2.45434,-3.49019 3.62674,-4.21302 8.55374,-5.27368 5.09316,-1.09643 6.41274,-1.95747 12.2226,-7.97545 5.19443,-5.38049 7.45425,-6.98332 11.16207,-7.91696 2.55697,-0.64386 4.725,-1.03788 4.81785,-0.87562 0.0928,0.16227 1.32473,1.87003 2.73752,3.79503 2.01791,2.74951 2.80435,5.49409 3.66762,12.79963 1.09659,9.28002 1.1086,9.30847 5.69809,13.5 3.48836,3.18587 5.66435,6.57692 9.00932,14.04006 l 4.41012,9.83969 -1.45288,6.90678 c -1.32096,6.27954 -1.29982,7.22774 0.23274,10.44154 1.64657,3.4529 1.79103,3.5206 6.2355,2.9195 2.50243,-0.3384 5.33738,-0.8328 6.29988,-1.0986 z"
     style="fill:#ff6666;fill-opacity:1"
     inkscape:label="Guanía" />
  <path
     inkscape:connector-curvature="0"
     id="Guv"
     d="m 515.56944,833.89197 c 0.64596,-0.7783 2.53,-4.2135 4.18677,-7.6337 2.87927,-5.9439 3.09433,-6.1443 4.86968,-4.5376 2.70784,2.4506 5.78667,0.1913 7.43468,-5.4557 0.93011,-3.1871 1.90114,-4.588 3.32814,-4.8018 1.85875,-0.2784 1.91983,-0.5782 0.78831,-3.8696 -1.14497,-3.3305 -0.96966,-4.0865 2.63563,-11.3653 2.12421,-4.28864 3.87208,-9.29732 3.88416,-11.13041 0.0284,-4.31177 2.8703,-10.50166 6.96006,-15.15963 l 3.24513,-3.696 3.34047,2.06453 c 3.0689,1.89669 3.53149,1.93938 5.68992,0.52512 1.29219,-0.84668 4.80037,-2.4021 7.79595,-3.4565 3.66976,-1.2917 7.2797,-3.6745 11.06605,-7.30433 l 5.61954,-5.38725 10.23377,0.41104 c 11.41791,0.45861 20.40565,-1.3235 27.61501,-5.47556 2.41353,-1.39002 5.71303,-2.35431 8.05572,-2.35431 2.64785,0 5.08017,-0.82064 7.31139,-2.46678 1.83894,-1.35672 3.66473,-2.26826 4.05732,-2.02563 0.39258,0.24263 2.44567,-1.05594 4.56241,-2.88572 3.81011,-3.29358 3.83157,-3.35288 2.14511,-5.92675 -1.62604,-2.48165 -1.8541,-2.53696 -5.01495,-1.21627 -2.02536,0.84625 -4.95004,1.16382 -7.53059,0.8177 -3.08951,-0.41439 -4.69679,-0.13365 -6.00309,1.04854 -1.60444,1.45199 -2.00249,1.46136 -3.95587,0.0932 -1.19457,-0.8367 -4.09419,-1.49746 -6.44362,-1.46836 -2.34943,0.0291 -6.39205,-0.22116 -8.9836,-0.55615 -4.5994,-0.59452 -4.79873,-0.76792 -8.3475,-7.2614 -5.46697,-10.00336 -8.33048,-13.48862 -9.96667,-12.13069 -1.05636,0.8767 -1.69176,0.45778 -2.92612,-1.92921 l -1.57674,-3.04908 4.26447,-2.6846 c 11.67906,-7.35232 20.76447,-13.35601 20.76447,-13.72132 0,-0.2241 -1.13763,-1.15286 -2.52807,-2.06391 -2.47235,-1.61995 -2.60442,-1.57549 -5.99312,2.01758 -3.73421,3.95941 -2.78145,3.84185 -14.47881,1.78652 -1.925,-0.33825 -4.47004,-1.50015 -5.65565,-2.58201 -1.75365,-1.60019 -2.54622,-1.75799 -4.25,-0.84615 -2.22042,1.18833 -4.8179,0.34219 -8.31883,-2.7099 -1.44905,-1.26328 -2.21344,-1.30086 -4.78591,-0.23531 -1.90951,0.79095 -5.12542,1.05507 -8.54679,0.70195 -4.57298,-0.47197 -6.17204,-0.17609 -9.61384,1.77889 l -4.12849,2.34503 -3.60025,-2.30229 c -3.09855,-1.98146 -4.98117,-2.31657 -13.51016,-2.4048 -5.45112,-0.0564 -10.46474,0.35793 -11.14302,0.92086 -0.6782,0.56285 -4.25457,1.8612 -7.94749,2.88522 l -6.71439,1.86184 -5.37931,-2.46272 c -5.83676,-2.67216 -7.40587,-2.44671 -7.40587,1.06407 0,3.2236 -0.509,3.44254 -5.4008,2.32314 -4.02853,-0.92186 -4.92044,-0.71356 -11.88687,2.77604 -4.14235,2.07497 -8.48569,5.06322 -9.65187,6.64057 -1.93237,2.61367 -2.67173,2.87104 -8.3404,2.90334 -3.42103,0.0195 -7.32239,0.64589 -8.66968,1.39201 -1.34729,0.74612 -3.01805,1.13845 -3.71281,0.87185 -0.69476,-0.26661 -3.52993,0.26815 -6.30038,1.18835 -4.50848,1.49747 -5.03719,1.97777 -5.03719,4.57587 0,2.49114 -0.74451,3.28692 -5.25,5.61154 -3.99166,2.05951 -6.45122,2.65214 -10.26169,2.47256 -4.31027,-0.20314 -5.6893,0.24558 -9.85338,3.20613 l -4.84171,3.44232 -4.14661,-1.79946 c -2.28063,-0.9897 -6.47209,-2.10595 -9.31434,-2.48056 l -5.16774,-0.6811 -0.54978,5.33253 c -0.30238,2.93288 -0.82875,16.02716 -1.16971,29.09838 l -0.61993,23.76586 7.05368,8.66759 c 5.4931,6.74994 7.19712,9.62407 7.70198,12.99076 0.88029,5.87013 5.06119,10.82843 13.99983,16.60303 6.34804,4.101 7.4194,5.2016 7.4194,7.6222 0,2.5464 0.41655,2.8957 4.16819,3.4956 3.75051,0.5997 4.43681,0.3724 6.84873,-2.2683 1.47429,-1.6141 4.0986,-3.6681 5.8318,-4.5644 3.5302,-1.8255 3.57286,-1.9219 2.0824,-4.7069 -0.89141,-1.6656 -0.45893,-2.7416 2.60488,-6.4805 3.57768,-4.3661 3.73705,-4.4419 6.0937,-2.8978 2.15298,1.4107 2.65454,1.4213 4.54649,0.096 1.88408,-1.3196 2.53686,-1.3188 5.72518,0.01 1.97925,0.823 5.62363,3.4312 8.09863,5.7961 2.475,2.3649 5.9301,5.2767 7.678,6.4707 1.77738,1.2142 3.68717,3.7137 4.33329,5.6715 0.71442,2.1647 2.26835,4.0762 4.072,5.0089 1.60419,0.8295 2.91671,2.2246 2.91671,3.1002 0,0.8756 1.77583,3.3678 3.94628,5.5383 3.3217,3.3217 4.25838,3.7792 5.91814,2.891 2.76712,-1.481 8.29257,-0.1883 8.8854,2.0787 0.406,1.5526 1.56147,0.8921 7.22678,-4.1306 3.70893,-3.2882 7.27203,-6.6153 7.91799,-7.3937 z"
     style="fill:#ff6666;fill-opacity:1"
     inkscape:label="Guaviare" />
  <path
     inkscape:connector-curvature="0"
     inkscape:label="Caquetá"
     id="Caq"
     d="m 465.45654,945.72597 c 3.76465,-5.1175 5.5405,-5.4846 9.26608,-1.9152 4.15661,3.9823 6.7189,2.131 12.02028,-8.6846 3.67817,-7.5041 5.05071,-9.3278 8.41356,-11.1791 2.56163,-1.4102 4.13679,-3.0419 4.345,-4.501 0.45779,-3.2081 4.36911,-4.5024 9.21706,-3.0499 5.41189,1.6215 9.18728,-0.099 11.50772,-5.2452 2.61164,-5.7915 12.76845,-12.6363 22.44861,-15.1284 10.38007,-2.6721 12.6531,-4.9997 7.54976,-7.731 -1.88881,-1.0108 -3.65935,-1.0722 -7.72707,-0.2679 -4.95676,0.98 -5.4118,0.8977 -7.50201,-1.3577 -1.22385,-1.3205 -2.72809,-2.401 -3.34276,-2.401 -0.61466,0 -3.05235,-1.3312 -5.41708,-2.9581 -3.57388,-2.4589 -4.2175,-3.3872 -3.81359,-5.5 0.45658,-2.3885 0.23824,-2.5419 -3.61725,-2.5419 -3.75985,0 -4.22803,-0.2989 -5.59562,-3.572 -0.82086,-1.9646 -1.9208,-3.3072 -2.44433,-2.9837 -1.26933,0.7845 -2.47392,-1.306 -2.53807,-4.4048 -0.041,-1.9821 -0.67499,-2.6195 -3.01156,-3.0279 -2.29202,-0.4006 -3.111,-1.1933 -3.63086,-3.5144 -0.3692,-1.6485 -1.40593,-4.6847 -2.30384,-6.7472 -1.7583,-4.0388 -3.96018,-4.7063 -9.09046,-2.7558 -2.32381,0.8835 -2.80295,0.6666 -4.30362,-1.9482 -0.92878,-1.6183 -2.70635,-3.406 -3.95016,-3.9727 -1.24902,-0.5691 -2.26148,-1.9239 -2.26148,-3.0262 0,-1.1934 -1.17256,-2.6021 -2.91671,-3.504 -1.72318,-0.8911 -3.3629,-2.8453 -4.0071,-4.7757 -1.211,-3.6288 -13.65042,-15.4985 -18.34243,-17.5023 -2.34926,-1.0033 -3.39589,-0.9741 -5.58105,0.1559 -2.26102,1.1693 -2.9834,1.176 -4.5339,0.042 -1.62978,-1.1917 -2.13317,-1.0054 -4.32679,1.6016 -2.14433,2.5484 -2.34081,3.3565 -1.44263,5.933 0.99599,2.8571 0.85248,3.0926 -3.40479,5.5875 -2.44453,1.4326 -4.4446,2.9813 -4.4446,3.4416 0,0.4603 -1.26539,1.7379 -2.81197,2.8392 -2.56023,1.8231 -3.29882,1.8947 -8.25,0.8003 -5.12538,-1.1328 -5.45626,-1.3906 -5.75508,-4.4837 -0.27348,-2.8307 -1.2451,-3.8766 -7.06878,-7.6095 -8.20375,-5.2585 -12.80593,-10.7934 -13.7182,-16.4984 -0.71047,-4.44304 -9.56852,-17.02641 -13.44687,-19.10204 -1.2593,-0.67376 -1.9491,-2.09219 -1.9491,-4.00774 0,-2.78945 -0.23525,-2.96482 -3.97717,-2.96482 -2.18745,0 -6.87403,1.09038 -10.41464,2.42306 -6.43365,2.42161 -6.43856,2.42186 -8.25253,0.41744 -0.99828,-1.10308 -3.3645,-2.65301 -5.25826,-3.44427 -1.89376,-0.79126 -5.34716,-2.99881 -7.67422,-4.90567 -5.15646,-4.22533 -6.45914,-4.72358 -18.25893,-6.98377 -9.33502,-1.78808 -9.33595,-1.78856 -12.11647,-6.25585 -2.00336,-3.21868 -2.95482,-6.34082 -3.40348,-11.16827 -0.34252,-3.68536 -2.15053,-11.51481 -4.0178,-17.39878 -2.89824,-9.13264 -3.32161,-11.68485 -2.89317,-17.44101 0.44612,-5.99384 0.88547,-7.14441 3.95499,-10.35746 3.10376,-3.2489 3.38177,-3.9949 2.7479,-7.3737 -0.52789,-2.81389 -1.48194,-4.16806 -3.7942,-5.38542 -1.69893,-0.89447 -4.60841,-3.0888 -6.4655,-4.8763 -1.85709,-1.7875 -4.16178,-3.25 -5.12153,-3.25 -0.95976,0 -2.58649,-0.92982 -3.61496,-2.06627 -1.76648,-1.95194 -1.94105,-1.96903 -3.15499,-0.30887 -0.70677,0.96657 -1.28504,2.9277 -1.28504,4.35806 0,1.77388 -1.45673,4.01798 -4.58219,7.05887 -4.26694,4.15149 -4.55113,4.74584 -4.13066,8.63887 0.64375,5.9602 -3.29986,10.64312 -10.39653,12.34558 -4.9928,1.19775 -5.20996,1.40142 -7.95898,7.46424 -1.55437,3.42809 -5.02178,8.65763 -7.70536,11.62121 -2.68358,2.96357 -6.64483,8.7025 -8.80276,12.75317 -2.86462,5.37719 -5.40789,8.54304 -9.42352,11.73032 -3.025,2.40099 -7.59209,6.96181 -10.14909,10.13513 -2.557,3.17333 -7.54869,9.36969 -11.09265,13.76969 l -6.44357,8 -6.37969,0.11097 -6.37969,0.11096 -2.80629,4.38904 c -1.54346,2.41396 -3.49398,5.96403 -4.33449,7.88903 -1.44569,3.31103 -1.41714,3.57408 0.52864,4.872 1.13126,0.7546 2.05683,2.3921 2.05683,3.6389 0,1.5449 0.55716,2.2226 1.74952,2.128 1.06391,-0.085 1.86521,0.6687 2.04476,1.9219 0.47655,3.3264 5.91817,5.8829 13.70572,6.4392 l 7,0.5 0.56245,4.214 c 0.65774,4.928 3.30552,8.286 6.53352,8.286 1.2573,0 2.56411,0.45 2.90403,1 0.33992,0.55 3.03992,1 6,1 2.96008,0 5.66008,0.45 6,1 0.33992,0.55 1.95261,1 3.58377,1 2.22592,0 3.19773,0.6102 3.89578,2.4462 1.02412,2.6936 5.94323,4.184 10.76645,3.262 4.18596,-0.8002 8.254,1.7602 8.254,5.195 0,1.5686 0.675,3.4121 1.5,4.0968 0.825,0.6847 1.5,2.4847 1.5,4 0,3.5804 1.99777,5.1371 7.79004,6.0698 2.59048,0.4172 5.99493,1.254 7.56544,1.8597 2.82737,1.0904 2.85199,1.1724 2.5,8.3359 l -0.35548,7.2346 4,0.3238 c 2.2,0.1782 4.77732,1.0262 5.72738,1.8846 1.14946,1.0385 2.82226,1.3837 5,1.0319 2.59687,-0.4196 3.97431,0.058 6.67085,2.312 l 3.39823,2.8409 -0.6514,7.8108 c -0.59382,7.1204 -0.47431,7.9215 1.35177,9.0619 1.10174,0.6881 2.00317,1.9222 2.00317,2.7426 0,1.8883 2.90941,1.891 9.97987,0.01 3.23422,-0.8607 5.84751,-1.0906 6.37698,-0.5612 0.52946,0.5295 1.95376,0.4954 3.47557,-0.083 2.16473,-0.823 2.87002,-0.6107 4.39536,1.323 0.99929,1.2669 2.09469,3.5739 2.43422,5.1268 0.52004,2.3783 0.99283,2.7291 2.99963,2.2254 1.62321,-0.4074 2.5687,-0.1121 2.96732,0.9266 0.33394,0.8703 1.80235,1.5246 3.42133,1.5246 1.76615,0 3.40289,0.8089 4.33795,2.1439 2.27187,3.2435 6.75718,5.8413 10.11177,5.8565 1.65,0.01 6.30561,1.1354 10.34579,2.5066 4.04018,1.3711 8.00003,2.493 8.79966,2.493 2.66882,0 7.53219,3.0947 7.00841,4.4596 -0.38159,0.9944 2.27725,1.747 10.66895,3.0199 7.40811,1.1236 12.65281,2.5089 15.55314,4.1079 5.96295,3.2876 11.42116,3.2507 12.9421,-0.087 1.50672,-3.3069 5.45132,-3.2947 9.81074,0.03 l 3.31757,2.5305 5.0593,-2.5638 5.05931,-2.5637 4.96751,5.0999 c 2.73214,2.805 4.96752,5.52 4.96752,6.0334 0,0.5133 1.2375,0.9157 2.75,0.8943 2.07618,-0.029 3.5541,-1.1321 6.03169,-4.5 z"
     style="fill:#ff6666;fill-opacity:1" />
  <path
     inkscape:connector-curvature="0"
     id="Vau"
     d="m 680.67485,986.32397 c 0,-2.8401 1.34657,-3.23 5.36165,-1.5524 5.03258,2.1028 5.63546,1.9157 5.66059,-1.7566 0.0122,-1.7875 0.88064,-4.3672 1.9298,-5.7327 l 1.90757,-2.4826 -3.2822,-4.0174 c -1.80521,-2.2095 -4.07499,-5.5923 -5.04397,-7.5173 -0.96897,-1.925 -2.92752,-4.7458 -4.35233,-6.2684 -2.52792,-2.7015 -2.54935,-2.8382 -0.88584,-5.6543 1.1256,-1.9055 1.70343,-5.0416 1.7009,-9.2316 l -0.004,-6.3457 -9.74616,-4.7888 c -5.36039,-2.6339 -10.30984,-4.7714 -10.99877,-4.75 -1.80798,0.056 -8.36411,-7.506 -10.34665,-11.9341 -0.93087,-2.0792 -2.18935,-4.0874 -2.79662,-4.4627 -0.75726,-0.4682 -1.10397,-8.4605 -1.10397,-25.4525 l 0,-24.77 4.75,-2.1126 c 2.6125,-1.1619 7.225,-2.6242 10.25,-3.2497 9.49103,-1.9622 10.48247,-2.3975 10.81955,-4.7497 0.39299,-2.7424 2.29545,-2.8653 4.61839,-0.2985 1.71673,1.897 1.83992,1.87 6.90499,-1.5155 7.57333,-5.0619 7.42187,-5.0515 11.7685,-0.8071 3.16946,3.0949 4.14848,3.5887 4.8535,2.4479 0.75438,-1.2206 1.46151,-1.1682 4.84916,0.3595 5.8712,2.6475 11.08897,0.4137 6.18591,-2.6483 -2.48419,-1.5514 -2.49258,-2.2674 -0.0665,-5.6745 2.86191,-4.0192 3.48938,-7.4975 1.63078,-9.04 -0.86036,-0.7141 -1.56429,-2.6147 -1.56429,-4.2236 0,-3.4947 -3.63634,-7.2246 -8.65952,-8.8824 -2.96401,-0.9783 -3.75451,-0.8827 -5.45912,0.66 -1.57904,1.429 -2.36913,1.5691 -3.80215,0.6741 -1.26253,-0.7884 -3.09768,-0.8401 -6.07567,-0.171 -3.77299,0.8478 -4.43168,0.7233 -5.69185,-1.0759 -1.01727,-1.4523 -2.53669,-2.0346 -5.30938,-2.0346 -2.13635,0 -4.17632,-0.4725 -4.53326,-1.0501 -0.40529,-0.6558 -1.90435,-0.092 -3.99229,1.5 -1.83882,1.4026 -3.82334,2.5501 -4.41004,2.5501 -0.72654,0 -1.06671,-7.8004 -1.06671,-24.46126 l 0,-24.46126 -5.1815,-1.53874 c -2.84983,-0.84631 -6.40982,-1.53874 -7.91111,-1.53874 -1.85494,0 -3.60119,-1.04142 -5.44961,-3.25 -1.496,-1.7875 -3.561,-3.573 -4.58889,-3.96778 -2.72063,-1.0449 -2.62574,-8.29261 0.13111,-10.01429 2.22185,-1.38757 2.82168,-6.78255 0.75,-6.74569 -0.6875,0.0122 -2.375,0.90222 -3.75,1.97776 -1.60035,1.25181 -4.11938,1.97497 -7,2.00957 -2.475,0.0297 -5.37117,0.71301 -6.43593,1.51843 -1.06476,0.80542 -5.78976,2.64052 -10.5,4.078 -7.70051,2.35007 -9.52943,2.5453 -18.13773,1.93616 l -9.57366,-0.67744 -5.42634,5.41212 c -3.92948,3.91919 -6.9402,5.91278 -10.91428,7.22704 -3.01836,0.9982 -6.81984,2.62489 -8.44773,3.61487 -2.86531,1.7425 -3.05976,1.73818 -6.09159,-0.1356 l -3.13181,-1.93556 -2.01553,2.7262 c -3.43627,4.64788 -5.3254,8.9953 -5.3254,12.2552 0,1.72058 -1.85592,7.12281 -4.12427,12.00496 l -4.12426,8.87665 2.05661,3.9457 c 2.31423,4.4399 2.05025,5.1437 -1.92943,5.1437 -2.39795,0 -2.88048,0.4928 -3.44883,3.5224 -0.4395,2.3427 -1.86809,4.5175 -4.26572,6.4939 -3.13921,2.5876 -3.79113,2.7852 -5.0463,1.5301 -1.25516,-1.2552 -1.72284,-0.8345 -3.62012,3.2561 -1.38027,2.9759 -5.17736,7.517 -10.36085,12.3907 l -8.18209,7.6933 1.25229,4.0125 c 0.97752,3.132 1.80532,4.077 3.77263,4.3067 2.03726,0.2379 2.5804,0.9172 2.8337,3.5443 0.19967,2.0709 0.85345,3.25 1.80202,3.25 0.81876,0 1.95086,1.3259 2.51577,2.9464 0.8865,2.543 1.59809,2.9879 5.19798,3.25 3.89992,0.2839 4.19121,0.5145 4.48403,3.5509 0.34637,3.5918 4.64308,7.5869 9.44961,8.7865 1.51953,0.3792 3.14072,1.3648 3.60266,2.1902 0.69913,1.2493 1.66065,1.3246 5.73723,0.4491 4.45225,-0.9561 5.2836,-0.8261 9.14734,1.4298 2.3375,1.3648 4.25,2.9124 4.25,3.4393 0,0.5268 2.24396,0.9578 4.98658,0.9578 4.71495,0 5.06311,0.1832 6.39161,3.3627 1.57918,3.7795 5.77014,5.3684 7.77817,2.9489 0.97128,-1.1703 1.91145,-0.6814 5.5573,2.8899 3.64181,3.5673 4.34133,4.851 4.1125,7.5469 -0.20545,2.4204 0.29134,3.6456 1.94905,4.8067 1.54944,1.0853 2.22479,2.5787 2.22479,4.9198 0,7.3247 2.5648,8.5834 6.0382,2.9633 l 2.20132,-3.5618 2.19469,2.0618 c 1.20708,1.134 3.16236,2.0618 4.34506,2.0618 1.1827,0 2.62206,0.8814 3.19857,1.9586 1.03818,1.9399 1.0796,1.9401 4.33255,0.021 l 3.28434,-1.9378 3.70264,3.052 c 2.49186,2.054 3.70263,3.8801 3.70263,5.5842 0,2.357 0.25956,2.4943 3.75,1.9839 2.0625,-0.3017 5.20698,-0.8492 6.98773,-1.2168 1.78075,-0.3675 3.99638,-0.3772 4.92362,-0.021 1.40453,0.539 0.97689,1.3694 -2.56233,4.9756 -3.99625,4.0719 -4.11918,4.3624 -2.07257,4.8976 1.9504,0.51 2.1233,1.0676 1.67011,5.3861 -0.27804,2.6495 -0.81088,5.9758 -1.18409,7.3918 -0.51125,1.9398 -0.0573,3.3129 1.84106,5.569 l 2.51963,2.9944 -2.49326,4.181 -2.49326,4.181 3.39001,0 c 4.40069,0 4.96922,0.6951 3.01185,3.6824 -1.52439,2.3266 -1.48074,2.5799 0.8453,4.9059 l 2.4527,2.4527 2.79642,-2.9188 c 2.69027,-2.808 2.73402,-3.0141 1.15242,-5.4279 -2.0216,-3.0854 -1.42105,-3.5487 6.83189,-5.2709 5.64259,-1.1775 6.247,-1.1222 8.97669,0.8215 2.79493,1.9902 2.84183,2.145 1.04141,3.4385 -5.76576,4.1425 -6.93931,6.3166 -3.40958,6.3166 1.08666,0 3.40897,-1.575 5.16068,-3.5 2.12254,-2.3325 4.07644,-3.5 5.85758,-3.5 3.47984,0 4.07054,0.7 2.98964,3.543 -0.80617,2.1204 -0.59137,2.3661 2.31384,2.6472 2.69688,0.2609 3.18797,0.7045 3.11045,2.8098 -0.0506,1.375 -0.43692,3.7375 -0.85841,5.25 -0.50353,1.8069 -0.38622,2.75 0.34206,2.75 0.60963,0 1.10841,-0.8734 1.10841,-1.941 z"
     style="fill:#ff6666;fill-opacity:1"
     inkscape:label="Vaupés" />
  <path
     inkscape:connector-curvature="0"
     inkscape:label="Amazonas"
     id="Ama"
     d="m 677.10976,1107.483 c 18.15453,-96.6634 19.35882,-103.8033 19.50201,-115.62173 0.0992,-8.1881 -0.21301,-12.5963 -0.89215,-12.5963 -0.57462,0 -1.04477,1.8111 -1.04477,4.0248 0,3.4424 -0.38675,4.1717 -2.67311,5.041 -2.00654,0.7629 -3.44036,0.6431 -5.75,-0.4806 -2.93429,-1.4275 -3.1019,-1.3947 -3.61644,0.709 -0.36945,1.5104 -1.43242,2.3093 -3.37182,2.534 -4.05736,0.4701 -4.88083,-0.8846 -3.11158,-5.119 2.10963,-5.0491 1.94567,-5.7092 -1.41803,-5.7092 -3.54528,0 -4.52213,-1.2662 -3.07008,-3.9793 1.72674,-3.2265 -1.64878,-2.5784 -4.55406,0.8743 -1.79471,2.1329 -3.55468,3.0133 -6.68544,3.3443 -2.33719,0.2471 -4.58359,0.2698 -4.992,0.051 -1.06238,-0.5703 2.91288,-8.0059 4.86394,-9.0978 2.53436,-1.4183 0.0469,-2.3225 -4.42281,-1.6078 -5.55388,0.8881 -6.63859,1.7251 -5.3518,4.1295 0.89043,1.6638 0.40396,2.5987 -3.14676,6.0477 l -4.20001,4.0798 -4.36067,-3.7932 c -2.69599,-2.3451 -3.93668,-4.0552 -3.25,-4.4796 1.77473,-1.0968 1.28535,-2.5684 -0.85415,-2.5684 -3.54584,0 -4.25415,-3.3146 -1.50467,-7.0414 2.09174,-2.8351 2.25314,-3.5516 1.10174,-4.8902 -2.10959,-2.4526 -3.53916,-7.6053 -2.54543,-9.1746 0.48541,-0.7666 0.88945,-3.0813 0.89787,-5.1438 0.0133,-3.2663 -0.28567,-3.75 -2.31802,-3.75 -3.9815,0 -3.86373,-1.2206 0.5608,-5.8125 l 4.27253,-4.4341 -3,0.7296 c -3.4377,0.8362 -9.07847,0.8927 -11.11431,0.1115 -0.76213,-0.2924 -1.39983,-1.7834 -1.41711,-3.3131 -0.0199,-1.7626 -0.91374,-3.423 -2.44019,-4.533 -2.31169,-1.6809 -2.54951,-1.6685 -5.90166,0.3093 l -3.4929,2.0609 -1.1021,-2.0593 c -0.60615,-1.1326 -1.83833,-2.0593 -2.73817,-2.0593 -0.89984,0 -2.49591,-0.7781 -3.54681,-1.7292 -1.65492,-1.4977 -2.02447,-1.5311 -2.76027,-0.25 -2.50292,4.358 -3.45701,4.9685 -6.48648,4.1511 -2.68815,-0.7254 -3.05842,-1.3112 -3.56197,-5.6349 -0.41115,-3.5304 -1.24677,-5.3906 -3.11357,-6.9312 -2.07213,-1.7101 -2.46821,-2.7635 -2.10778,-5.6061 0.35477,-2.7979 -0.068,-3.9811 -2.10711,-5.8968 -1.94531,-1.8275 -2.86891,-2.1326 -3.89021,-1.2849 -2.27306,1.8864 -8.78155,-0.698 -9.91002,-3.9351 -0.85194,-2.4439 -1.49289,-2.7409 -6.62625,-3.0706 -3.1257,-0.2008 -5.98953,0.073 -6.36406,0.6087 -0.37454,0.5355 -4.38459,1.9845 -8.91123,3.2199 -10.47862,2.8598 -20.01466,9.0521 -22.52983,14.6297 -2.4276,5.3835 -7.14979,7.733 -12.8983,6.4175 -5.14172,-1.1766 -7.47967,-0.4597 -7.47967,2.2935 0,1.4226 -1.3256,2.6884 -4.35819,4.1618 -3.87706,1.8836 -4.84303,3.108 -8.75,11.0909 -3.59145,7.3382 -5.05138,9.3106 -8.01107,10.8232 l -3.61925,1.8497 -2.30506,-2.4536 c -3.23715,-3.4458 -4.97411,-3.0312 -8.73812,2.0854 -4.58581,6.2338 -7.81361,6.1807 -12.69228,-0.2087 -5.70164,-7.4672 -6.60663,-7.8299 -12.3172,-4.9361 l -4.8572,2.4613 -2.92582,-2.3918 c -3.84662,-3.1445 -6.8005,-3.1315 -8.24386,0.036 -1.59123,3.4924 -7.98827,3.4463 -14.18195,-0.1022 -3.07221,-1.7602 -8.14881,-3.1876 -16,-4.4991 -13.68387,-2.2856 -14.36619,-2.502 -13.66341,-4.3335 0.37933,-0.9885 -0.85452,-1.8944 -4.07439,-2.9915 -2.54016,-0.8655 -5.51039,-1.5737 -6.6005,-1.5737 -1.38858,0 -43.60015,11.5831 -45.30066,12.4307 -0.0764,0.038 0.37357,2.8379 1,6.2218 0.81225,4.3877 2.1055,7.3537 4.50845,10.3401 2.80226,3.4826 3.20035,4.5587 2.36475,6.3926 -1.61058,3.5349 0.99751,7.096 7.68621,10.495 5.08115,2.5821 6.09592,2.805 7.12474,1.5653 1.9221,-2.3159 3.74438,-1.6801 4.45481,1.5545 0.55933,2.5466 1.13806,3.0084 3.82946,3.0558 2.61753,0.046 3.92105,1.0066 7.4734,5.5069 3.7252,4.7193 4.56614,5.3102 6.26401,4.4015 1.07864,-0.5773 3.41735,-0.7653 5.19714,-0.4179 3.65298,0.7131 10.6898,9.04573 16.61603,19.67583 l 3.38003,6.0629 -2.13003,4.3842 c -1.17152,2.4114 -2.13004,4.7586 -2.13004,5.216 0,0.4574 2.48335,2.4805 5.51856,4.4958 l 5.51856,3.6641 5.486,-1.5948 c 5.39502,-1.5684 5.53419,-1.5564 8.39228,0.7274 3.49378,2.7917 5.73047,7.6054 6.60289,14.2102 0.35509,2.6884 1.33354,6.3306 2.17433,8.0937 1.49178,3.1283 1.44217,3.3262 -2.05418,8.1928 l -3.58288,4.9871 3.22222,3.0544 c 2.25742,2.1399 4.64447,3.2569 7.97222,3.7305 4.00695,0.5704 4.7524,1.0185 4.76531,2.8649 0.03,4.2899 1.08645,4.7334 7.36793,3.0931 5.32621,-1.3909 5.91435,-1.3797 7.02099,0.1337 1.07289,1.4673 1.48086,1.251 3.6518,-1.9363 2.69901,-3.9626 4.0341,-4.4031 6.03563,-1.9914 1.11112,1.3389 2.61866,1.4987 8.93795,0.9474 7.45907,-0.6506 7.62318,-0.6153 8.76446,1.8896 0.90634,1.9892 1.88514,2.5473 4.43449,2.5287 7.00246,-0.051 11.17608,-1.7725 15.57644,-6.4247 3.80338,-4.0211 4.80323,-4.5514 8.581,-4.5514 4.00815,0 4.73155,-0.4698 11.54835,-7.5 3.99978,-4.125 7.64008,-7.5 8.08954,-7.5 0.44946,0 1.12333,1.3938 1.49748,3.0973 0.59616,2.7143 1.00787,3.0297 3.32946,2.5503 3.50596,-0.724 10.77068,2.2767 12.26306,5.0652 1.35149,2.5253 2.88611,2.1149 2.88611,-0.7718 0,-4.0636 2.81672,-1.8734 4.01509,3.1219 0.97277,4.055 1.54013,4.9315 2.84975,4.4026 0.89934,-0.3632 5.35512,-0.9055 9.90175,-1.205 7.58303,-0.4995 8.31442,-0.7351 8.84514,-2.8496 0.47025,-1.8737 1.35636,-2.3619 4.73341,-2.6081 3.43588,-0.2504 4.21016,-0.6922 4.47441,-2.5528 0.36135,-2.5443 2.35522,-2.9493 4.11011,-0.8348 0.88466,1.066 1.96222,1.1894 4.36585,0.5 4.20304,-1.2054 4.70449,-1.1613 4.70449,0.4139 0,0.7309 2.33443,2.4184 5.18763,3.75 5.87381,2.7411 8.59614,5.2182 9.99068,9.0907 1.43364,3.9811 3.82169,4.4802 3.82169,0.7988 0,-3.4712 2.5028,-4.1105 3.5219,-0.8996 1.10801,3.491 6.33058,5.9231 12.7281,5.9273 5.90207,0 7.19898,1.1225 4.5,3.8815 -1.0118,1.0343 -0.53539,1.1465 2.5,0.5887 3.05438,-0.5613 3.75,-0.3931 3.75,0.9064 0,0.8776 1.2666,3.0131 2.81466,4.7457 2.43156,2.7214 3.10315,2.9958 4.93426,2.0158 3.38091,-1.8094 3.9426,-1.4017 4.59159,3.3333 0.61218,4.4663 0.60495,4.4791 -23.97216,42.7168 -18.83109,29.2979 -24.35929,38.608 -23.62211,39.7824 0.52932,0.8432 2.94046,1.8004 5.35808,2.1271 2.41762,0.3267 5.68193,1.1216 7.25401,1.7664 2.51613,1.0321 3.51531,0.8166 8.34598,-1.7998 4.17263,-2.26 6.24346,-2.8231 8.64167,-2.35 5.77128,1.1386 9.2244,4.2439 11.20775,10.0789 1.8042,5.3078 12.5758,20.3219 13.21147,18.4149 0.17617,-0.5285 9.02754,-47.3224 19.66971,-103.9864 z"
     style="fill:#ff6666;fill-opacity:1" />
  <path
     inkscape:connector-curvature="0"
     id="Dc"
     d="m 322.58057,620.13579 c 1.091,-1.17105 3.58785,-5.37585 5.54854,-9.34399 1.9607,-3.96815 5.2481,-9.04207 7.30533,-11.27538 6.23175,-6.76513 8.22266,-9.8692 7.06956,-11.0223 -1.0259,-1.0259 -0.78878,-5.23228 0.91487,-16.22915 0.47069,-3.03825 2.0808,-7.42404 3.59729,-9.79867 3.71854,-5.82275 5.32506,-14.03381 3.76472,-19.24177 -0.65247,-2.17776 -1.58522,-3.95956 -2.07278,-3.95956 -0.48756,0 -2.25827,2.39765 -3.93491,5.32812 -1.6896,2.95311 -4.23463,5.86858 -5.70956,6.5406 l -2.66112,1.21249 2.0077,2.20939 c 2.90997,3.20232 3.50815,9.74703 1.16899,12.78995 -1.39879,1.81964 -1.86559,4.15484 -1.88293,9.41945 -0.0145,4.39991 -0.7279,8.85721 -1.92065,12 -1.66597,4.38969 -2.31084,5.06805 -5.28315,5.55747 -5.47335,0.90124 -5.81762,1.45283 -5.81762,9.32094 0,6.91024 -0.1929,7.51893 -4,12.62159 -2.2,2.94867 -4,5.50494 -4,5.68061 0,1.23713 4.29262,-0.0783 5.90572,-1.80979 z"
     style="fill:#ff6666;fill-opacity:1"
     inkscape:label="Bogotá" />
</svg>
