<?xml version="1.0" encoding="UTF-8" standalone="no"?>
<!-- Created with Inkscape (http://www.inkscape.org/) -->

<svg
   xmlns:dc="http://purl.org/dc/elements/1.1/"
   xmlns:cc="http://creativecommons.org/ns#"
   xmlns:rdf="http://www.w3.org/1999/02/22-rdf-syntax-ns#"
   xmlns:svg="http://www.w3.org/2000/svg"
   xmlns="http://www.w3.org/2000/svg"
   xmlns:sodipodi="http://sodipodi.sourceforge.net/DTD/sodipodi-0.dtd"
   xmlns:inkscape="http://www.inkscape.org/namespaces/inkscape"
   version="1.0"
   width="986"
   height="1424"
   id="svg2"
   sodipodi:version="0.32"
   inkscape:version="0.48.4 r9939"
   sodipodi:docname="CO_Re_MAP.svg"
   inkscape:output_extension="org.inkscape.output.svg.inkscape">
  <metadata
     id="metadata76">
    <rdf:RDF>
      <cc:Work
         rdf:about="">
        <dc:format>image/svg+xml</dc:format>
        <dc:type
           rdf:resource="http://purl.org/dc/dcmitype/StillImage" />
        <dc:title></dc:title>
      </cc:Work>
    </rdf:RDF>
  </metadata>
  <sodipodi:namedview
     inkscape:window-height="776"
     inkscape:window-width="1271"
     inkscape:pageshadow="2"
     inkscape:pageopacity="0.0"
     guidetolerance="10.0"
     gridtolerance="10.0"
     objecttolerance="10.0"
     borderopacity="1.0"
     bordercolor="#666666"
     pagecolor="#ffffff"
     id="base"
     showgrid="false"
     inkscape:zoom="0.4588249"
     inkscape:cx="283.0769"
     inkscape:cy="650.42245"
     inkscape:window-x="-8"
     inkscape:window-y="0"
     inkscape:current-layer="g2161"
     showguides="false"
     inkscape:guide-bbox="true"
     inkscape:window-maximized="0"
     inkscape:object-paths="true"
     inkscape:snap-bbox="true"
     inkscape:snap-smooth-nodes="true"
     inkscape:snap-midpoints="false" />
  <defs
     id="defs5">
    <inkscape:perspective
       sodipodi:type="inkscape:persp3d"
       inkscape:vp_x="0 : 712 : 1"
       inkscape:vp_y="0 : 1000 : 0"
       inkscape:vp_z="986 : 712 : 1"
       inkscape:persp3d-origin="493 : 474.66667 : 1"
       id="perspective78" />
  </defs>
  <g
     transform="translate(3.7771873,3.7771883)"
     id="g2161">
    <path
       style="fill:#ff6666;fill-opacity:1"
       d="m 536.38045,578.48638 c 2.06388,-1.35231 2.69968,-1.35085 5.9656,0.0137 l 3.65552,1.52738 3.08499,-5.01375 C 550.7833,572.25619 552.57139,570 553.06009,570 c 0.4887,0 1.59513,-1.36638 2.45874,-3.0364 l 1.57018,-3.03641 2.95962,2.10744 c 4.25107,3.02703 4.88243,0.4467 1.43882,-5.88036 -1.84871,-3.39668 -2.46974,-5.63472 -1.98627,-7.15799 0.42874,-1.35083 0.0337,-3.70125 -1.01159,-6.01937 l -1.71499,-3.80317 -9.27285,0.55323 -9.27286,0.55322 -0.74932,-6.39009 C 537.06744,534.37554 536.65835,524.975 536.57048,517 l -0.15978,-14.5 3.26428,-4.06593 c 2.44802,-3.04921 3.42739,-5.45369 3.91654,-9.61565 0.43261,-3.68082 0.27446,-5.78322 -0.46963,-6.24309 C 542.50485,482.19398 542,479.68945 542,477.00971 c 0,-4.83699 -0.0714,-4.9433 -9.86624,-14.69098 L 522.26752,452.5 517.53137,434 c -2.60489,-10.175 -5.25258,-18.83061 -5.88376,-19.23469 C 509.72738,413.536 506.31718,413.9129 505,415.5 c -0.68469,0.825 -2.53979,1.5 -4.12244,1.5 -2.71521,0 -2.87881,-0.23978 -2.8998,-4.25 -0.0137,-2.61524 -0.75437,-5.20283 -1.92562,-6.72713 l -1.90339,-2.47713 -3.82438,3.07331 c -3.20783,2.57785 -5.03347,3.1868 -11.32437,3.77728 -11.91017,1.11793 -11,-0.0149 -11,13.69104 l 0,11.95259 L 463.5,445 c -2.475,4.92802 -4.5,9.5101 -4.5,10.18241 0,0.67231 1.37167,2.63757 3.04814,4.36726 2.76934,2.85723 2.93647,3.39001 1.82713,5.82474 -0.86848,1.9061 -0.91159,2.98927 -0.14931,3.75155 0.76228,0.76228 1.26384,0.19695 1.73716,-1.95803 1.01748,-4.63259 2.57932,-5.37674 6.31736,-3.00999 4.60649,2.91663 4.4828,7.59441 -0.35698,13.50072 l -3.57649,4.36464 1.70207,5.12447 c 0.93614,2.81846 3.22057,6.80526 5.0765,8.85955 3.92643,4.34609 4.27236,7.15253 1.13815,9.23356 -1.76783,1.1738 -1.99252,1.77851 -1.07267,2.88687 0.91693,1.10484 0.42003,2.61775 -2.34414,7.13714 -3.40374,5.56508 -3.63683,5.73511 -7.86223,5.73511 -2.39497,0 -5.62129,-0.44903 -7.16959,-0.99783 -2.75215,-0.97553 -2.73684,-0.92877 0.6849,2.09082 1.925,1.69875 4.4,3.68018 5.5,4.40316 2.64729,1.73993 14.5,3.07825 14.5,1.63722 0,-2.17222 4.5648,-3.37719 12.91121,-3.40817 7.49713,-0.0278 8.6336,0.19754 8.94131,1.77306 0.43636,2.23421 5.58182,10.77917 9.39484,15.60181 2.48774,3.14646 2.70108,3.91898 1.69317,6.1311 -0.80795,1.77327 -0.86636,3.87601 -0.19509,7.02341 0.67927,3.18487 0.61064,5.32958 -0.23581,7.36889 l -1.19394,2.87653 11.09216,3.52693 c 9.91393,3.15229 11.12391,3.78962 11.39119,6 0.65448,5.41266 1.09396,5.74451 4.58141,3.45945 z"
       id="Nsa"
       inkscape:label="Norte de Santander" />
    <path
       style="fill:#ff6666;fill-opacity:1"
       d="m 760.46607,640.31479 c 1.94366,-0.92687 3.52906,-1.93937 3.52311,-2.25 C 763.98323,637.75415 757.4697,629.175 749.51467,619 741.55964,608.825 730.30253,594.3125 724.49886,586.75 714.2558,573.40271 713.8369,573 710.19588,573 c -2.06298,0 -4.76819,0.71256 -6.01159,1.58347 -2.09456,1.46709 -2.92268,1.39359 -11.26715,-1 C 687.96361,572.16256 683.7058,571 683.45536,571 683.20491,571 683,570.14814 683,569.10699 683,566.39795 681.18279,566 668.81212,566 c -10.59533,0 -11.1661,0.11071 -14.66822,2.84509 -2.00414,1.56479 -5.81057,3.37862 -8.45873,4.03072 -4.44842,1.09541 -4.94359,1.02663 -6.50678,-0.90383 -1.53732,-1.89852 -2.12562,-1.99228 -6.43758,-1.02595 -3.55749,0.79725 -7.93723,0.7017 -17.49323,-0.38164 -22.02194,-2.49658 -25.93762,-2.6428 -27.28537,-1.01886 -0.6639,0.79996 -2.22075,1.45447 -3.45965,1.45447 -1.23891,0 -3.65881,0.28125 -5.37756,0.625 -2.77289,0.55458 -3.125,1.01241 -3.125,4.06327 0,2.34518 -1.9075,6.84452 -6,14.15255 -5.21948,9.32049 -6,11.40002 -6,15.98562 0,5.21929 -0.0411,5.28975 -4.16367,7.13547 -2.97493,1.33192 -4.83069,1.61053 -6.5,0.97586 -2.04665,-0.77813 -2.33633,-0.59036 -2.33633,1.5144 0,1.38455 -1.08091,3.25291 -2.55085,4.40917 -2.8402,2.2341 -5.35325,8.69957 -3.03576,7.81027 1.95551,-0.7504 7.12252,2.73417 9.15414,6.17343 3.30368,5.59268 5.00154,5.74366 14.9873,1.33276 8.37212,-3.69813 9.10906,-3.85587 11.50345,-2.46217 2.38017,1.38541 3.146,1.2453 11,-2.01249 7.93288,-3.2905 8.5989,-3.4093 11.04933,-1.97085 2.38575,1.40047 3.53437,1.32958 13.5,-0.83317 15.43158,-3.34898 39.64411,-3.89271 46.31108,-1.03997 2.51972,1.07816 7.30356,2.49171 10.63075,3.14122 6.04374,1.17981 6.05505,1.17754 12,-2.40715 5.61258,-3.38428 6.4438,-3.58822 14.63462,-3.59065 l 8.68406,-0.003 7.31106,5.5 c 4.60342,3.46309 8.29839,5.5 9.97704,5.5 1.70434,0 3.53232,1.02957 5.06771,2.85427 3.2311,3.83995 3.74951,3.97604 15.49214,4.06678 7.6434,0.0591 11.10601,-0.34543 13.75,-1.60626 z"
       id="Ara"
       inkscape:label="Arauca" />
    <path
       style="fill:#ff6666;fill-opacity:1"
       d="m 440.05249,663.59645 c 3.78572,-1.14915 5.07821,-1.16086 7.67382,-0.0695 4.02582,1.69273 4.4876,0.62437 3.64566,-8.43456 -0.59108,-6.35983 -0.48418,-6.85899 1.86474,-8.70665 1.37048,-1.07801 3.23942,-3.40582 4.15321,-5.17289 0.91379,-1.76708 2.26017,-3.21287 2.99196,-3.21287 0.73178,0 3.42023,1.59561 5.97432,3.54581 5.45817,4.16762 5.903,6.70722 2.1438,12.23938 -2.7303,4.018 -3.10876,6.20605 -1.37355,7.94126 0.83526,0.83526 1.75136,0.38379 3.54392,-1.74655 1.32961,-1.58015 3.18524,-3.11668 4.12362,-3.41452 0.93839,-0.29783 2.88949,-2.50059 4.33578,-4.89504 l 2.62963,-4.35352 7.94162,0.45973 7.94162,0.45973 3.84311,-5.36814 c 2.11371,-2.95248 5.96522,-7.84314 8.5589,-10.86814 2.59369,-3.025 4.95263,-6.85 5.24208,-8.5 0.28946,-1.65 0.83177,-3.95867 1.20513,-5.13039 0.49944,-1.56738 -0.0228,-2.78102 -1.97627,-4.59235 -2.15978,-2.00266 -2.59546,-3.19097 -2.33535,-6.36961 0.29179,-3.56585 0.59373,-3.93429 3.45197,-4.21222 2.55503,-0.24845 3.66741,0.3447 6.03656,3.2189 l 2.90435,3.52348 3.21344,-1.9542 c 1.76739,-1.07482 3.22345,-2.52333 3.23568,-3.21891 0.0122,-0.69559 0.90222,-2.3897 1.97776,-3.7647 1.55289,-1.98526 1.96011,-4.1008 1.97776,-10.27475 0.0211,-7.38211 -0.10402,-7.82275 -2.47776,-8.72525 -1.89721,-0.72132 -2.5,-1.67133 -2.5,-3.94007 0,-3.52766 -0.32827,-3.71858 -13,-7.56064 -5.225,-1.58422 -9.86163,-3.17878 -10.30362,-3.54347 -0.442,-0.36469 -0.0398,-2.26478 0.89372,-4.22244 1.39596,-2.92736 1.50734,-4.30792 0.62729,-7.77504 -0.64288,-2.53276 -0.72382,-5.12632 -0.20276,-6.49682 0.70984,-1.86703 -0.12044,-3.78246 -4.57367,-10.55126 C 500.44843,533.36169 498,529.1305 498,528.5076 c 0,-0.73519 -2.81768,-1.19246 -8.03111,-1.30333 -7.72138,-0.16421 -8.06787,-0.0741 -8.98402,2.33553 -0.72576,1.9089 -1.49304,2.39418 -3.21889,2.03585 -1.24629,-0.25876 -4.96598,-0.76351 -8.26598,-1.12167 -5.36302,-0.58206 -6.7166,-1.23667 -12.75,-6.16605 -3.7125,-3.03317 -6.75,-5.88663 -6.75,-6.34102 0,-0.4544 -1.6875,-0.96584 -3.75,-1.13654 -3.25644,-0.26952 -3.79167,-0.67259 -4.06662,-3.06244 -0.18559,-1.6131 0.53866,-3.9532 1.75,-5.65437 3.00789,-4.22419 2.58522,-6.6292 -2.30939,-13.14046 l -4.37601,-5.82138 -2.75693,2.87763 c -2.62906,2.74413 -2.70364,3.08929 -1.60794,7.4407 0.63194,2.50969 2.22966,6.92263 3.55048,9.80652 3.71809,8.11812 3.77684,11.31481 0.33527,18.24343 -1.63917,3.3 -4.13382,7.22904 -5.54366,8.7312 -2.24994,2.39726 -2.42003,3.04578 -1.3911,5.30403 1.18455,2.59982 0.91126,6.93426 -0.98775,15.66605 -0.93208,4.28572 -0.80555,4.99286 1.43146,8 1.34965,1.8143 2.72554,4.7488 3.05753,6.52111 0.52586,2.8073 0.17675,3.54798 -2.71025,5.75 -1.82263,1.39019 -4.1714,2.5345 -5.21948,2.54292 -2.49756,0.0201 -3.32554,0.67304 -7.25521,5.72173 -1.81386,2.33037 -4.62197,5.01916 -6.24024,5.9751 -1.61828,0.95594 -4.06647,3.43678 -5.44043,5.51297 -2.05875,3.11098 -3.08392,3.77489 -5.82893,3.77489 -2.06624,0 -4.02137,0.76304 -5.14966,2.00978 -1.61857,1.78851 -1.70506,2.75189 -0.78556,8.75 1.15386,7.52693 1.0022,8.24022 -1.75205,8.24022 -1.16768,0 -2.94142,1.60467 -4.49622,4.06762 -2.28331,3.617 -2.4424,4.44754 -1.43602,7.4969 0.62247,1.8861 1.92591,3.99317 2.89654,4.68238 0.97062,0.6892 2.30202,2.2656 2.95865,3.5031 1.01275,1.90862 2.01408,2.25 6.59969,2.25 2.97319,0 5.7028,0.48056 6.0658,1.06791 0.363,0.58734 0.90206,3.73734 1.1979,7 0.55712,6.14395 1.0258,6.66305 4.39021,4.86247 1.61774,-0.86579 2.64058,-0.57995 5.36754,1.5 1.85291,1.41329 4.04332,2.56962 4.86756,2.56962 0.82425,0 2.45992,1.35 3.63482,3 1.79368,2.51899 2.8067,2.99826 6.31809,2.98918 2.30005,-0.006 6.23053,-0.63268 8.7344,-1.39273 z"
       id="San"
       inkscape:label="Santander" />
    <path
       style="fill:#ff6666;fill-opacity:1"
       d="m 490.73114,744.0589 c 0.66673,-1.0676 1.49917,-5.6801 1.84987,-10.25 0.63063,-8.21751 0.68593,-8.35446 5.02831,-12.45047 4.40118,-4.15148 5.20374,-5.7379 3.45083,-6.82125 -0.5571,-0.34431 -0.35347,-1.98425 0.5,-4.0269 0.79192,-1.89532 1.43985,-4.45754 1.43985,-5.69381 0,-1.33537 1.91192,-4.18888 4.71017,-7.02985 l 4.71016,-4.78207 3.63656,3.551 3.63656,3.551 3.44755,-3.30327 c 1.89616,-1.81681 5.23625,-4.87828 7.42244,-6.80328 2.18619,-1.925 5.79942,-5.70649 8.02941,-8.40332 l 4.05452,-4.90332 2.25787,3.65332 c 3.0822,4.9871 4.71582,4.66602 5.57991,-1.09668 0.39173,-2.6125 1.13658,-5.54295 1.65521,-6.5121 1.45336,-2.71587 -3.48621,-8.3789 -10.3155,-11.82631 C 538.62118,659.29438 536,657.75833 536,657.49815 c 0,-0.26018 1.83711,-1.63278 4.08247,-3.05021 l 4.08246,-2.57715 -0.46935,-6.18539 c -0.25815,-3.40197 -0.93928,-8.2104 -1.51363,-10.6854 -1.40711,-6.06357 0.18367,-12.64401 3.94059,-16.30069 1.58628,-1.54396 2.87746,-3.87326 2.87746,-5.19098 0,-3.05276 1.39749,-3.90115 4.07006,-2.47083 1.58525,0.8484 2.83636,0.82969 5.02067,-0.0751 2.51035,-1.03982 2.90927,-1.74081 2.90927,-5.11226 0,-3.89089 2.71476,-10.19036 8.94565,-20.75798 C 572.11947,581.40537 573,578.62738 573,575.45599 573,571.20818 572.86484,571 570.10699,571 c -1.78516,0 -3.13953,-0.6424 -3.53675,-1.67754 -0.59119,-1.54064 -0.77485,-1.54642 -2.25037,-0.0709 -1.47553,1.47552 -1.81315,1.47134 -4.13698,-0.0513 -2.11289,-1.38443 -2.60785,-1.42538 -3.00023,-0.24826 -0.25844,0.77533 -1.45947,2.3408 -2.66896,3.47884 -1.20949,1.13803 -3.43263,3.94836 -4.94032,6.24518 l -2.74125,4.17603 -4.04179,-1.42603 C 540.56735,580.64171 538.58012,580 538.37427,580 c -0.20585,0 -0.38428,4.1625 -0.39651,9.25 -0.0184,7.63892 -0.36283,9.68543 -1.97776,11.75 -1.07554,1.375 -1.96553,3.28667 -1.97776,4.24816 -0.0125,0.9842 -2.09805,3.05821 -4.77224,4.7459 l -4.75,2.99774 -3.26346,-3.4959 c -1.7949,-1.92275 -3.9324,-3.4959 -4.75,-3.4959 -2.30014,0 -1.77027,3.87409 0.97632,7.13823 2.02195,2.40295 2.29048,3.38033 1.5,5.45946 -0.52957,1.39288 -0.96909,3.74071 -0.97671,5.21741 -0.009,1.80267 -1.84601,4.82074 -5.58965,9.1849 -3.06669,3.575 -7.38128,9.13028 -9.58797,12.34507 l -4.01217,5.84507 -7.82407,-0.69259 -7.82408,-0.69259 -2.58665,4.09752 C 479.1389,656.15612 477.49763,658 476.91429,658 c -0.58335,0 -2.66452,1.78663 -4.62483,3.97028 l -3.56419,3.97028 -2.86264,-2.03837 C 462.31026,661.37267 462.20387,658.46765 465.5,654 c 3.60018,-4.87977 3.27024,-7.96599 -1.17537,-10.99439 -2.99187,-2.03808 -3.75224,-2.22277 -4.15663,-1.00961 -0.27221,0.81662 -1.81858,2.80842 -3.43638,4.42622 -2.78321,2.78322 -2.91698,3.29481 -2.4865,9.50962 0.30368,4.38417 1.3e-4,7.4775 -0.91289,9.30294 l -1.36785,2.73478 -3.96251,-1.58549 c -3.62156,-1.44906 -4.36674,-1.44775 -8.66033,0.0152 -2.5838,0.88039 -6.61201,1.60071 -8.95158,1.60071 -3.58504,0 -4.5896,-0.47163 -6.38996,-3 -1.1749,-1.65 -2.62557,-3 -3.2237,-3 -0.59814,0 -2.64726,-1.18967 -4.55361,-2.64372 -3.34893,-2.55435 -3.56108,-2.5876 -6.27627,-0.9837 -2.7028,1.59658 -2.8701,1.57447 -4.3783,-0.57879 C 404.62486,656.4471 404,653.45202 404,650.27749 L 404,645 l -5.46482,0 c -4.65827,0 -5.6353,-0.33207 -6.61999,-2.25 -0.63535,-1.2375 -2.39408,-3.6 -3.90829,-5.25 -1.51421,-1.65 -3.04849,-4.25625 -3.40951,-5.79166 l -0.6564,-2.79166 -2.4705,2.93602 c -2.96639,3.52535 -3.03213,4.48181 -0.58628,8.52927 1.76484,2.92049 1.78935,3.49815 0.38691,9.11803 -0.82351,3.3 -2.40144,6.98759 -3.50651,8.19464 -1.41018,1.54032 -1.82151,2.94251 -1.37964,4.70307 0.62,2.47029 0.69073,2.48686 4.65066,1.08972 3.08183,-1.08733 4.59341,-1.15794 6.47138,-0.30228 2.08206,0.94865 3.02516,0.71806 6.2754,-1.53436 2.1038,-1.45793 4.38637,-2.65079 5.07237,-2.65079 2.02587,0 4.1451,6.49955 4.14677,12.71788 0.002,8.26496 2.33027,12.43215 7.68219,13.75108 2.30106,0.56707 5.22606,1.9766 6.5,3.13227 1.27394,1.15568 2.84504,2.3989 3.49132,2.76271 1.34474,0.75698 6.32494,-1.24835 6.32494,-2.5468 0,-0.474 1.87793,-2.89914 4.17318,-5.38919 5.18801,-5.62833 8.71817,-5.8395 10.20894,-0.61069 0.77543,2.71977 1.33189,3.22035 3.08945,2.77923 1.45756,-0.36582 3.32546,0.43611 5.83605,2.50555 2.95158,2.43294 3.69238,3.73399 3.69238,6.48486 0,2.50295 0.79146,4.18729 2.9026,6.1772 1.7419,1.64185 3.72829,5.27422 4.96739,9.0835 l 2.06479,6.3476 -2.55064,5.03344 c -2.89153,5.70615 -2.38058,6.99106 3.35938,8.44805 2.35429,0.59759 4.13812,2.19409 6.50663,5.82331 2.66579,4.08474 3.86037,5.05763 6.52589,5.31481 2.12691,0.20521 3.81825,1.16256 4.85838,2.75 1.97089,3.00796 6.35954,3.27577 8.09672,0.49409 z"
       id="Boy"
       inkscape:label="Boyaca" />
  </g>
</svg>
